<?xml version="1.0" encoding="UTF-8"?>
<svg xmlns="http://www.w3.org/2000/svg" xmlns:xlink="http://www.w3.org/1999/xlink" width="138.12" height="84.84" viewBox="0 0 138.12 84.84">
<path fill-rule="nonzero" fill="rgb(100%, 72.157288%, 11.372375%)" fill-opacity="1" d="M 38.78125 67.703125 C 38.78125 67.703125 38.78125 67.703125 38.78125 67.699219 C 36.816406 68.078125 34.847656 67.828125 33.03125 67.316406 C 33.300781 68.886719 34.089844 70.589844 36.164062 70.960938 L 37.285156 71.164062 L 37.289062 71.171875 C 37.441406 71.175781 38.8125 71.203125 39.367188 70.402344 C 39.394531 70.367188 39.417969 70.320312 39.441406 70.277344 C 39.410156 70.191406 39.402344 70.097656 39.4375 70 C 39.917969 68.640625 38.78125 67.703125 38.78125 67.703125 "/>
<path fill-rule="nonzero" fill="rgb(100%, 72.157288%, 11.372375%)" fill-opacity="1" d="M 34.613281 52.449219 C 34.582031 52.445312 34.046875 52.703125 33.378906 53.035156 L 33.582031 54.539062 L 34.261719 54.460938 L 37.847656 55.734375 L 40.433594 53.546875 C 38.816406 52.691406 36.324219 51.472656 35.15625 51.421875 C 35.15625 51.421875 34.695312 52.457031 34.613281 52.449219 "/>
<path fill-rule="nonzero" fill="rgb(100%, 72.157288%, 11.372375%)" fill-opacity="1" d="M 39.296875 42.964844 C 39.351562 42.894531 44.503906 40.609375 44.503906 40.609375 L 42.066406 39.71875 C 41.824219 39.8125 36.859375 41.828125 36.230469 42.699219 C 35.585938 43.59375 34.25 45.375 34.25 45.375 L 37.851562 44.753906 C 37.851562 44.753906 39.242188 43.03125 39.296875 42.964844 "/>
<path fill-rule="nonzero" fill="rgb(100%, 72.157288%, 11.372375%)" fill-opacity="1" d="M 33.5625 48.652344 L 31.839844 47.367188 C 31.839844 47.367188 34.550781 47.074219 34.933594 47.21875 L 34.25 45.375 C 34.25 45.375 33.292969 44.289062 32.847656 43.628906 L 31.195312 43.339844 L 29.902344 42.046875 C 29.902344 42.046875 26.925781 46.171875 26.898438 46.492188 C 26.871094 46.789062 27.558594 52.351562 27.667969 53.234375 L 29.78125 52.265625 L 33.21875 50.289062 Z M 33.5625 48.652344 "/>
<path fill-rule="nonzero" fill="rgb(100%, 72.157288%, 11.372375%)" fill-opacity="1" d="M 46.289062 25.996094 C 49.691406 24.628906 55.726562 22.871094 61.308594 24.632812 C 63.417969 25.296875 65.265625 26.460938 66.753906 27.96875 C 67.441406 27.261719 68.207031 26.625 69.046875 26.070312 C 67.195312 24.132812 64.871094 22.632812 62.203125 21.792969 C 55.800781 19.78125 48.363281 21.9375 44.515625 23.46875 C 45.199219 24.078125 45.871094 24.90625 46.289062 25.996094 "/>
<path fill-rule="nonzero" fill="rgb(100%, 72.157288%, 11.372375%)" fill-opacity="1" d="M 66.753906 46.964844 C 65.328125 48.351562 63.558594 49.46875 61.488281 50.210938 C 51.660156 53.738281 50.007812 56.25 46.382812 61.746094 L 45.894531 62.484375 C 44.578125 64.472656 43.140625 65.789062 41.65625 66.632812 C 42.128906 68.707031 41.53125 69.738281 40.78125 70.238281 C 43.742188 69.292969 46.308594 67.253906 48.375 64.125 L 48.867188 63.382812 C 52.3125 58.160156 53.601562 56.203125 62.496094 53.011719 C 64.988281 52.113281 67.125 50.769531 68.851562 49.09375 C 68.082031 48.433594 67.382812 47.722656 66.753906 46.964844 "/>
<path fill-rule="nonzero" fill="rgb(100%, 72.157288%, 11.372375%)" fill-opacity="1" d="M 116.398438 45.675781 L 115.933594 45.734375 L 115.945312 45.722656 C 112.105469 46.113281 107.351562 46.414062 103.96875 46.015625 C 103.96875 46.015625 100.457031 45.09375 98.867188 43.390625 C 98.867188 43.390625 111.148438 43.984375 119.875 41.398438 L 119.9375 41.332031 C 119.960938 41.304688 121.835938 39.203125 123.585938 35.753906 C 123.375 35.832031 123.113281 35.929688 122.789062 36.042969 C 122.246094 36.257812 121.722656 36.453125 121.269531 36.589844 L 120.789062 36.734375 C 116.214844 38.25 107.8125 40.640625 101.40625 40.179688 C 101.40625 40.179688 99.554688 39.222656 98.691406 38.277344 C 98.691406 38.277344 109.570312 38.535156 118.859375 33.039062 C 119.164062 32.222656 119.769531 30.378906 120.191406 27.515625 C 115.742188 31.078125 108.132812 35.734375 98.800781 35.734375 C 97.667969 35.734375 96.507812 35.660156 95.328125 35.511719 C 96.359375 38.652344 96.351562 42.015625 95.039062 45.117188 C 94.460938 46.488281 93.664062 47.714844 92.707031 48.78125 C 96.835938 49.242188 102.359375 50.238281 108.59375 52.371094 C 110.34375 52.109375 116.929688 50.777344 122.3125 44.925781 L 121.980469 44.96875 C 121.097656 45.101562 118.992188 45.402344 116.398438 45.675781 "/>
<path fill-rule="nonzero" fill="rgb(100%, 72.157288%, 11.372375%)" fill-opacity="1" d="M 38.390625 32.699219 C 39.980469 31.726562 43.160156 29.273438 43.050781 25.363281 C 41.039062 28.691406 36.941406 29.289062 34.75 29.140625 C 33.761719 29.070312 33.011719 28.199219 33.101562 27.214844 C 33.277344 25.292969 33.136719 22.199219 30.746094 20.796875 C 27.148438 18.6875 22.957031 19.554688 22.957031 19.554688 C 23.140625 19.535156 23.320312 19.632812 23.390625 19.804688 C 24.1875 21.761719 23.082031 24.703125 22.789062 25.414062 C 22.75 25.515625 22.664062 25.597656 22.5625 25.644531 C 21.4375 26.125 20.402344 26.335938 19.777344 26.425781 C 19.484375 26.464844 19.242188 26.199219 19.3125 25.910156 C 19.523438 25.042969 19.613281 24.273438 19.648438 23.785156 C 19.671875 23.496094 19.398438 23.273438 19.117188 23.34375 C 14.449219 24.484375 10.800781 26.257812 10.351562 26.480469 C 11.730469 30.058594 13.316406 32.101562 13.339844 32.132812 L 13.785156 32.691406 L 13.824219 33.410156 C 13.957031 36.074219 15.589844 38.265625 16.941406 39.636719 C 18.285156 37.617188 19.859375 35.671875 20.914062 34.4375 C 20.019531 33.714844 18.761719 32.917969 17.054688 32.300781 C 16.609375 32.140625 16.621094 31.5 17.074219 31.375 C 18.785156 30.902344 21.796875 30.535156 24.519531 32.507812 L 24.546875 32.519531 C 24.582031 32.53125 28.195312 33.914062 32.304688 33.964844 C 34.6875 33.992188 36.714844 33.558594 38.390625 32.699219 "/>
<path fill-rule="nonzero" fill="rgb(100%, 72.157288%, 11.372375%)" fill-opacity="1" d="M 88.636719 41.257812 C 88.386719 41.855469 88.03125 42.375 87.625 42.847656 C 87.40625 43.121094 87.171875 43.386719 86.914062 43.625 L 83.980469 39.167969 L 87.359375 37.699219 C 87.351562 37.671875 87.34375 37.644531 87.332031 37.617188 L 83.972656 36.476562 L 84.621094 33.734375 C 84.261719 33.417969 83.882812 33.121094 83.476562 32.847656 L 83.480469 32.84375 L 83.472656 32.84375 C 83.453125 32.832031 83.433594 32.820312 83.414062 32.808594 L 80.984375 34.152344 L 79.65625 31.421875 L 78.53125 34.070312 L 73.742188 32.46875 C 74.253906 31.953125 74.855469 31.527344 75.503906 31.183594 C 75.464844 31.1875 75.425781 31.191406 75.390625 31.203125 C 77.632812 29.898438 80.640625 29.660156 83.484375 30.863281 C 84.089844 31.121094 84.648438 31.429688 85.171875 31.777344 L 85.175781 31.773438 L 85.175781 31.777344 C 88.507812 34.007812 90.042969 37.933594 88.636719 41.257812 M 77.078125 37.632812 C 77.039062 37.238281 77.085938 36.839844 77.246094 36.460938 C 77.832031 35.074219 79.613281 34.503906 81.226562 35.183594 C 82.835938 35.867188 83.667969 37.542969 83.082031 38.925781 C 82.75 39.707031 82.039062 40.214844 81.199219 40.402344 C 80.542969 40.546875 79.808594 40.5 79.101562 40.203125 C 77.929688 39.707031 77.179688 38.683594 77.078125 37.632812 M 77.464844 44.925781 C 76.359375 44.457031 75.390625 43.824219 74.578125 43.074219 L 78.765625 41.46875 L 79.847656 44.324219 L 81.527344 41.695312 L 86.902344 43.636719 C 84.628906 45.757812 80.914062 46.382812 77.464844 44.925781 M 72.308594 34.527344 C 72.644531 33.742188 73.144531 33.078125 73.722656 32.488281 L 76.117188 37.148438 L 73.039062 38.734375 L 76.558594 39.417969 L 74.578125 43.074219 C 72.09375 40.785156 71.082031 37.429688 72.308594 34.527344 M 83.59375 29 C 81.773438 28.230469 79.875 27.84375 78.015625 27.84375 C 76.695312 27.84375 75.394531 28.039062 74.160156 28.433594 C 71.308594 29.347656 69.15625 31.226562 68.101562 33.722656 C 65.871094 38.996094 69.191406 45.460938 75.503906 48.128906 C 81.816406 50.800781 88.765625 48.679688 90.996094 43.40625 C 93.230469 38.132812 89.90625 31.671875 83.59375 29 "/>
<path fill-rule="nonzero" fill="rgb(100%, 40.783691%, 11.372375%)" fill-opacity="1" d="M 34.984375 12.601562 C 34.984375 12.601562 38.039062 11.917969 39.652344 11.324219 C 41.261719 10.734375 41.085938 10.859375 42.625 10.695312 C 44.164062 10.535156 44.851562 10.996094 43.5 11.664062 C 42.148438 12.335938 42.527344 12.148438 41.296875 12.933594 C 40.066406 13.722656 38.527344 13.882812 37.617188 13.703125 C 36.703125 13.523438 34.984375 12.601562 34.984375 12.601562 M 37.519531 17.8125 C 37.519531 17.8125 37.5 17.804688 37.46875 17.789062 C 37.410156 17.769531 37.347656 17.753906 37.285156 17.730469 C 36.972656 17.648438 36.378906 17.628906 35.773438 18.359375 C 34.664062 19.691406 33.425781 18.90625 33.425781 18.90625 C 33.425781 18.90625 34.230469 18.089844 34.644531 17.007812 C 35.058594 15.921875 35.6875 15.199219 35.6875 15.199219 C 35.6875 15.199219 36.710938 16.148438 38.460938 16.417969 C 40.214844 16.6875 48.015625 12.226562 49.605469 12.214844 C 51.195312 12.199219 53.574219 14.890625 54.902344 17.203125 L 51.8125 16.46875 C 51.8125 16.46875 46.613281 20.507812 43.585938 19.347656 C 41.21875 18.4375 40.511719 17.824219 40.511719 17.824219 C 40.511719 17.824219 38.878906 18.25 37.511719 17.804688 Z M 59.945312 13.121094 C 58.371094 13.484375 56.8125 13.664062 55.957031 12.398438 C 55.097656 11.132812 53.972656 10.902344 53.972656 10.902344 C 56.039062 10.464844 61.027344 10.863281 62.3125 11.285156 C 63.597656 11.707031 63.582031 12.414062 62.933594 12.765625 C 62.292969 13.117188 61.519531 12.757812 59.945312 13.121094 M 57.878906 16.332031 C 57.878906 16.332031 59.539062 16.496094 60.5625 16.839844 C 61.589844 17.183594 61.765625 17.34375 62.070312 17.695312 C 62.375 18.046875 62.710938 18.011719 62.171875 18.652344 C 61.628906 19.292969 60.578125 19.554688 59.066406 19.511719 C 57.554688 19.472656 55.832031 19.132812 55.832031 19.132812 C 55.832031 19.132812 57.886719 18.582031 58.25 18.160156 C 58.609375 17.742188 58.792969 17.113281 57.878906 16.332031 M 64.84375 15.261719 C 64.84375 15.261719 66.339844 14.222656 66.453125 13.335938 C 66.5625 12.449219 68.761719 12.574219 69.925781 12.617188 C 71.089844 12.660156 71.632812 12.394531 71.886719 13 C 72.136719 13.605469 72.714844 13.804688 71.265625 14.277344 C 69.8125 14.753906 70.597656 14.527344 68.675781 15.203125 C 66.757812 15.882812 64.84375 15.261719 64.84375 15.261719 M 76.3125 19.515625 C 77.09375 20.183594 76.378906 20.6875 75.691406 21.011719 C 75 21.335938 73.59375 21.277344 72.558594 21.496094 C 71.527344 21.710938 70.765625 21.863281 70.257812 21.828125 C 69.746094 21.789062 66.882812 21.386719 67.476562 20.660156 C 68.070312 19.933594 70.746094 19.570312 71.40625 19.082031 C 72.066406 18.59375 71.273438 18.117188 71.542969 17.542969 C 71.816406 16.96875 75.753906 16.792969 76.066406 16.78125 C 77.089844 16.738281 80.027344 16.824219 80.054688 17.480469 C 80.085938 18.136719 79.929688 17.917969 78.445312 18.15625 C 76.957031 18.390625 75.527344 18.847656 76.3125 19.515625 M 129.039062 43.234375 C 121.617188 55.492188 109.082031 56.75 108.554688 56.800781 L 108.082031 56.839844 L 107.632812 56.683594 C 97.65625 53.195312 89.421875 52.808594 86.480469 52.792969 C 86.398438 52.820312 86.316406 52.84375 86.234375 52.867188 C 82.816406 56.792969 77.03125 58.871094 71.023438 61.015625 C 69.300781 61.628906 67.523438 62.265625 65.714844 62.964844 C 60.226562 65.085938 57.886719 69.007812 55.617188 72.804688 C 53.410156 76.5 51.128906 80.320312 46.125 80.710938 C 45.714844 80.742188 45.316406 80.757812 44.933594 80.757812 C 38.839844 80.757812 35.570312 76.957031 34.335938 75.105469 C 28.710938 73.421875 28.066406 67.082031 28.558594 63.792969 L 28.992188 60.921875 L 30.429688 61.546875 L 28.128906 58.40625 L 29.128906 57.839844 L 29.308594 56.945312 C 29.292969 56.742188 29.226562 56.328125 29.136719 55.832031 L 26.628906 56.984375 L 21.414062 54.382812 L 21.34375 53.550781 C 21.292969 52.960938 20.84375 47.734375 20.953125 46.183594 C 21.023438 45.164062 21.878906 43.828125 22.714844 42.75 L 21.65625 41.800781 L 22.027344 40.84375 C 22.144531 40.539062 22.257812 40.152344 22.367188 39.734375 C 21.3125 41.101562 20.210938 42.664062 19.46875 44.078125 L 18.320312 46.265625 L 16.257812 44.898438 C 16 44.726562 10.132812 40.753906 9.425781 34.332031 C 8.230469 32.628906 4.957031 27.339844 4.082031 19.457031 L 3.925781 18.046875 L 5.136719 17.304688 C 5.433594 17.125 11.996094 13.1875 24.179688 11.125 L 22.863281 9.171875 L 25.355469 8.113281 C 25.941406 7.863281 39.957031 2.058594 61.386719 4.511719 C 70.976562 5.609375 79.796875 8.425781 88.328125 11.152344 C 98.355469 14.355469 107.828125 17.378906 116.121094 16.480469 L 122.011719 15.839844 L 118.007812 20.207031 C 117.648438 20.597656 109.0625 29.707031 91.902344 26.617188 L 91.902344 26.613281 C 91.898438 26.609375 88.183594 22.691406 81.507812 22.007812 C 81.507812 22.007812 83.425781 20.417969 86.878906 20.519531 C 89.816406 20.605469 98.84375 23.304688 106.136719 21.832031 C 107.144531 21.550781 108.066406 21.230469 108.894531 20.886719 C 101.917969 20.175781 94.597656 17.839844 86.972656 15.402344 C 78.644531 12.742188 70.035156 9.996094 60.878906 8.945312 C 50.335938 7.742188 41.71875 8.695312 36.34375 9.707031 C 33.519531 10.238281 31.273438 10.839844 29.699219 11.324219 L 31.894531 14.574219 L 28.292969 15.027344 C 18.050781 16.316406 11.351562 19.15625 8.71875 20.449219 C 8.886719 21.484375 9.101562 22.453125 9.34375 23.367188 C 14.363281 20.617188 21.417969 19.722656 22.957031 19.554688 C 22.957031 19.554688 27.148438 18.6875 30.746094 20.796875 C 33.136719 22.199219 33.277344 25.296875 33.101562 27.214844 C 33.015625 28.199219 33.761719 29.070312 34.75 29.140625 C 36.941406 29.289062 41.039062 28.695312 43.050781 25.363281 C 43.03125 24.714844 42.941406 24.03125 42.71875 23.304688 C 42.574219 22.832031 43.078125 22.429688 43.5 22.699219 C 43.816406 22.898438 44.164062 23.15625 44.515625 23.46875 C 48.359375 21.9375 55.800781 19.78125 62.203125 21.792969 C 64.871094 22.636719 67.195312 24.132812 69.046875 26.070312 C 70.183594 25.316406 71.441406 24.695312 72.820312 24.253906 C 76.789062 22.980469 81.222656 23.230469 85.304688 24.960938 C 88.320312 26.234375 90.796875 28.191406 92.625 30.515625 C 94.707031 31.0625 96.738281 31.320312 98.683594 31.320312 C 111.609375 31.320312 121.074219 20.761719 121.1875 20.636719 L 125.160156 16.121094 L 125.027344 22.136719 C 124.949219 25.691406 124.539062 28.550781 124.078125 30.695312 C 125.164062 30.183594 126.144531 29.691406 126.679688 29.417969 L 131.230469 27.058594 L 129.792969 31.980469 C 128.851562 35.207031 127.496094 37.9375 126.253906 40 L 131.394531 39.351562 Z M 130.214844 37.25 C 130.902344 35.726562 131.476562 34.175781 131.9375 32.609375 L 134.835938 22.683594 L 126.964844 26.757812 C 127.125 25.28125 127.222656 23.753906 127.257812 22.183594 L 127.484375 11.648438 C 119.84375 14.484375 113.152344 14.449219 110.785156 14.320312 C 104.15625 13.859375 96.753906 11.5 89.007812 9.027344 C 80.378906 6.269531 71.457031 3.417969 61.636719 2.292969 C 39.589844 -0.21875 25.09375 5.800781 24.484375 6.058594 L 19.492188 8.175781 L 20.433594 9.566406 C 9.941406 11.800781 4.234375 15.242188 3.972656 15.402344 L 1.550781 16.882812 L 1.863281 19.703125 C 2.722656 27.429688 5.730469 32.816406 7.28125 35.148438 C 8.34375 42.128906 14.328125 46.292969 15.023438 46.753906 L 18.664062 49.175781 C 18.761719 50.984375 18.925781 52.9375 18.996094 53.757812 L 19.183594 55.898438 L 25.785156 59.195312 L 26.789062 60.5625 L 26.355469 63.460938 C 25.585938 68.574219 27.347656 74.835938 32.933594 76.984375 C 34.433594 78.984375 37.800781 82.421875 43.492188 82.925781 C 44.402344 83.027344 45.34375 83.011719 46.296875 82.9375 C 52.453125 82.453125 55.269531 77.738281 57.535156 73.945312 C 59.703125 70.316406 61.75 66.890625 66.519531 65.042969 C 68.316406 64.347656 70.078125 63.722656 71.773438 63.117188 C 77.503906 61.070312 83.417969 58.957031 87.265625 55.035156 C 90.675781 55.125 98.058594 55.699219 106.898438 58.792969 L 107.800781 59.109375 L 108.753906 59.019531 C 109.328125 58.96875 122.949219 57.597656 130.949219 44.390625 L 135.695312 36.550781 Z M 130.214844 37.25 "/>
<path fill-rule="nonzero" fill="rgb(100%, 40.783691%, 11.372375%)" fill-opacity="1" d="M 58.707031 59.035156 C 59.328125 59.210938 55.65625 60.996094 53.285156 64.65625 C 53.285156 64.65625 52.160156 57.269531 61.898438 55.613281 C 61.898438 55.613281 56.65625 58.464844 58.707031 59.035156 M 68.851562 49.09375 C 67.125 50.769531 64.988281 52.113281 62.496094 53.011719 C 53.601562 56.203125 52.3125 58.160156 48.867188 63.386719 L 48.375 64.125 C 46.308594 67.253906 43.742188 69.292969 40.78125 70.238281 C 40.53125 70.402344 40.269531 70.511719 40.023438 70.585938 C 39.769531 70.65625 39.519531 70.5 39.441406 70.277344 C 39.417969 70.320312 39.394531 70.367188 39.367188 70.402344 C 38.8125 71.203125 37.441406 71.175781 37.289062 71.171875 L 37.777344 72.1875 C 37.863281 72.355469 40.128906 76.707031 45.777344 76.261719 C 48.359375 76.0625 49.613281 74.152344 51.789062 70.515625 C 54.191406 66.488281 57.1875 61.476562 64.105469 58.800781 C 65.964844 58.082031 67.773438 57.4375 69.523438 56.8125 C 72.933594 55.59375 75.78125 54.535156 78.074219 53.398438 C 76.640625 53.160156 75.207031 52.769531 73.792969 52.171875 C 71.929688 51.382812 70.28125 50.324219 68.851562 49.09375 "/>
<path fill-rule="nonzero" fill="rgb(100%, 40.783691%, 11.372375%)" fill-opacity="1" d="M 42.175781 60.023438 L 42.65625 59.289062 C 44.160156 57.007812 45.4375 55.085938 47.117188 53.34375 L 46.789062 50.828125 C 47.546875 47.65625 48.625 45.707031 48.625 45.707031 L 42.445312 48.585938 C 42.445312 48.585938 43.476562 44.671875 46.992188 42.101562 C 50.507812 39.527344 56.066406 37.113281 56.066406 37.113281 C 53.550781 32.738281 49.84375 30.5625 48.554688 29.910156 C 47.578125 30.273438 46.796875 30.628906 46.304688 30.867188 C 41.847656 39.210938 32.230469 39.214844 25.851562 37.601562 C 25.667969 38.667969 25.425781 39.890625 25.132812 40.917969 L 26.867188 42.472656 L 25.890625 43.578125 C 24.949219 44.648438 24.007812 46.007812 23.914062 46.4375 C 23.859375 47.28125 24.054688 50.25 24.238281 52.464844 L 26.683594 53.6875 L 27.667969 53.234375 C 27.558594 52.351562 26.871094 46.789062 26.894531 46.492188 C 26.925781 46.167969 29.902344 42.046875 29.902344 42.046875 C 29.902344 42.046875 31.210938 42.34375 31.765625 42.210938 C 32.324219 42.078125 35.324219 39.324219 36.460938 38.996094 C 37.601562 38.667969 42.085938 39.707031 42.085938 39.707031 C 42.085938 39.707031 42.070312 39.714844 42.066406 39.71875 L 44.503906 40.609375 C 44.503906 40.609375 39.351562 42.894531 39.296875 42.964844 C 39.242188 43.03125 37.851562 44.753906 37.851562 44.753906 L 34.25 45.375 L 34.933594 47.21875 C 35.316406 47.367188 40.464844 51.15625 41.933594 54.371094 C 41.933594 54.371094 41.308594 54.011719 40.433594 53.546875 L 37.847656 55.734375 L 34.261719 54.460938 L 33.582031 54.539062 L 33.378906 53.039062 C 32.871094 53.289062 32.285156 53.582031 31.777344 53.839844 C 31.960938 54.699219 32.082031 55.351562 32.160156 55.835938 L 37.21875 56.679688 L 32.507812 59.347656 L 33.761719 61.058594 L 33.917969 62.925781 C 37.746094 64.109375 40.046875 63.234375 42.175781 60.023438 "/>
<path fill-rule="nonzero" fill="rgb(100%, 40.783691%, 11.372375%)" fill-opacity="1" d="M 76.558594 39.417969 L 73.039062 38.734375 L 76.117188 37.148438 L 73.722656 32.488281 C 73.144531 33.078125 72.644531 33.742188 72.308594 34.527344 C 71.082031 37.429688 72.09375 40.785156 74.578125 43.074219 Z M 76.558594 39.417969 "/>
<path fill-rule="nonzero" fill="rgb(100%, 40.783691%, 11.372375%)" fill-opacity="1" d="M 79.65625 31.421875 L 80.984375 34.15625 L 83.410156 32.808594 C 82.855469 32.441406 82.261719 32.113281 81.621094 31.839844 C 79.5625 30.96875 77.429688 30.800781 75.503906 31.179688 C 74.851562 31.527344 74.253906 31.953125 73.742188 32.46875 L 78.53125 34.070312 Z M 79.65625 31.421875 "/>
<path fill-rule="nonzero" fill="rgb(100%, 40.783691%, 11.372375%)" fill-opacity="1" d="M 79.847656 44.324219 L 78.765625 41.46875 L 74.578125 43.074219 C 75.390625 43.824219 76.359375 44.457031 77.464844 44.925781 C 80.914062 46.382812 84.632812 45.757812 86.90625 43.636719 L 81.527344 41.695312 Z M 79.847656 44.324219 "/>
<path fill-rule="nonzero" fill="rgb(100%, 40.783691%, 11.372375%)" fill-opacity="1" d="M 87.359375 37.699219 L 83.976562 39.167969 L 86.914062 43.625 C 87.050781 43.496094 87.167969 43.351562 87.292969 43.210938 C 88.035156 41.429688 88.003906 39.496094 87.359375 37.699219 "/>
<path fill-rule="nonzero" fill="rgb(100%, 40.783691%, 11.372375%)" fill-opacity="1" d="M 87.625 42.847656 C 87.523438 42.972656 87.40625 43.085938 87.292969 43.210938 C 87.292969 43.210938 87.292969 43.214844 87.292969 43.214844 C 87.40625 43.097656 87.519531 42.972656 87.625 42.847656 "/>
<path fill-rule="nonzero" fill="rgb(100%, 40.783691%, 11.372375%)" fill-opacity="1" d="M 84.621094 33.730469 L 83.972656 36.476562 L 87.332031 37.617188 C 86.800781 36.179688 85.871094 34.835938 84.621094 33.730469 "/>
<path fill-rule="nonzero" fill="rgb(100%, 40.783691%, 11.372375%)" fill-opacity="1" d="M 77.144531 37.410156 C 77.113281 37.480469 77.101562 37.558594 77.078125 37.632812 C 77.179688 38.683594 77.929688 39.707031 79.101562 40.203125 C 79.808594 40.5 80.542969 40.546875 81.195312 40.402344 C 81.554688 40.179688 81.847656 39.871094 82.015625 39.46875 C 82.507812 38.3125 81.8125 36.914062 80.46875 36.34375 C 79.121094 35.773438 77.632812 36.25 77.144531 37.410156 "/>
<path fill-rule="nonzero" fill="rgb(13.725281%, 12.156677%, 12.548828%)" fill-opacity="1" d="M 40.511719 17.824219 C 40.511719 17.824219 41.21875 18.4375 43.585938 19.347656 C 46.613281 20.507812 51.8125 16.46875 51.8125 16.46875 L 54.902344 17.203125 C 53.574219 14.890625 51.195312 12.199219 49.605469 12.214844 C 48.019531 12.226562 40.214844 16.6875 38.460938 16.417969 C 36.710938 16.148438 35.6875 15.199219 35.6875 15.199219 C 35.6875 15.199219 35.058594 15.921875 34.644531 17.003906 C 34.230469 18.089844 33.425781 18.90625 33.425781 18.90625 C 33.425781 18.90625 34.664062 19.691406 35.773438 18.359375 C 36.378906 17.628906 36.972656 17.648438 37.285156 17.730469 C 37.34375 17.753906 37.410156 17.769531 37.46875 17.789062 C 37.5 17.804688 37.519531 17.8125 37.519531 17.8125 L 37.511719 17.804688 C 38.878906 18.25 40.511719 17.824219 40.511719 17.824219 "/>
<path fill-rule="nonzero" fill="rgb(13.725281%, 12.156677%, 12.548828%)" fill-opacity="1" d="M 103.96875 46.011719 C 107.347656 46.414062 112.105469 46.113281 115.945312 45.722656 L 115.933594 45.734375 L 116.398438 45.675781 C 118.992188 45.402344 121.097656 45.101562 121.980469 44.96875 L 122.316406 44.925781 C 116.929688 50.777344 110.34375 52.109375 108.589844 52.371094 C 102.359375 50.238281 96.839844 49.242188 92.707031 48.78125 C 93.667969 47.714844 94.460938 46.488281 95.039062 45.117188 C 96.351562 42.015625 96.359375 38.652344 95.328125 35.511719 C 96.507812 35.660156 97.667969 35.734375 98.800781 35.734375 C 108.136719 35.734375 115.742188 31.078125 120.191406 27.511719 C 119.769531 30.378906 119.164062 32.222656 118.859375 33.039062 C 109.570312 38.53125 98.691406 38.277344 98.691406 38.277344 C 99.554688 39.222656 101.40625 40.179688 101.40625 40.179688 C 107.8125 40.640625 116.21875 38.25 120.789062 36.734375 L 121.269531 36.589844 C 121.722656 36.453125 122.25 36.257812 122.789062 36.042969 C 123.113281 35.929688 123.375 35.832031 123.585938 35.753906 C 121.835938 39.203125 119.960938 41.304688 119.9375 41.332031 L 119.875 41.398438 C 111.148438 43.984375 98.867188 43.390625 98.867188 43.390625 C 100.457031 45.09375 103.96875 46.011719 103.96875 46.011719 M 90.996094 43.40625 C 88.765625 48.679688 81.816406 50.800781 75.503906 48.128906 C 69.191406 45.460938 65.871094 38.996094 68.101562 33.722656 C 69.15625 31.226562 71.308594 29.347656 74.160156 28.433594 C 75.394531 28.039062 76.695312 27.84375 78.015625 27.84375 C 79.875 27.84375 81.773438 28.230469 83.59375 29 C 89.90625 31.671875 93.226562 38.132812 90.996094 43.40625 M 69.523438 56.8125 C 67.773438 57.4375 65.96875 58.082031 64.105469 58.800781 C 57.1875 61.476562 54.191406 66.488281 51.789062 70.515625 C 49.613281 74.152344 48.359375 76.0625 45.777344 76.261719 C 40.128906 76.707031 37.863281 72.355469 37.777344 72.1875 L 37.289062 71.171875 L 37.285156 71.164062 L 36.164062 70.960938 C 34.089844 70.589844 33.304688 68.886719 33.03125 67.316406 C 34.847656 67.828125 36.816406 68.078125 38.78125 67.703125 C 38.78125 67.703125 39.921875 68.640625 39.4375 70 C 39.402344 70.097656 39.414062 70.191406 39.441406 70.277344 C 39.519531 70.5 39.769531 70.65625 40.023438 70.582031 C 40.269531 70.511719 40.53125 70.402344 40.78125 70.238281 C 41.53125 69.738281 42.128906 68.707031 41.65625 66.632812 C 43.140625 65.789062 44.578125 64.472656 45.894531 62.484375 L 46.382812 61.746094 C 50.007812 56.25 51.664062 53.738281 61.488281 50.210938 C 63.558594 49.46875 65.328125 48.351562 66.753906 46.964844 C 67.382812 47.722656 68.082031 48.433594 68.851562 49.09375 C 70.28125 50.324219 71.929688 51.382812 73.792969 52.171875 C 75.207031 52.769531 76.640625 53.160156 78.074219 53.394531 C 75.78125 54.535156 72.933594 55.59375 69.523438 56.8125 M 32.160156 55.835938 C 32.082031 55.351562 31.960938 54.699219 31.78125 53.839844 C 32.285156 53.582031 32.871094 53.289062 33.378906 53.035156 C 34.046875 52.707031 34.582031 52.445312 34.613281 52.449219 C 34.695312 52.457031 35.15625 51.421875 35.15625 51.421875 C 36.324219 51.472656 38.816406 52.691406 40.433594 53.546875 C 41.308594 54.011719 41.933594 54.371094 41.933594 54.371094 C 40.464844 51.15625 35.316406 47.367188 34.933594 47.21875 C 34.550781 47.074219 31.839844 47.371094 31.839844 47.371094 L 33.5625 48.652344 L 33.21875 50.289062 L 29.78125 52.265625 L 27.667969 53.234375 L 26.683594 53.6875 L 24.238281 52.464844 C 24.054688 50.25 23.855469 47.28125 23.914062 46.4375 C 24.007812 46.007812 24.949219 44.648438 25.890625 43.578125 L 26.867188 42.472656 L 25.132812 40.917969 C 25.425781 39.890625 25.667969 38.667969 25.851562 37.601562 C 32.230469 39.214844 41.847656 39.210938 46.304688 30.863281 C 46.796875 30.628906 47.578125 30.273438 48.554688 29.90625 C 49.84375 30.5625 53.550781 32.738281 56.066406 37.113281 C 56.066406 37.113281 50.507812 39.527344 46.992188 42.101562 C 43.472656 44.671875 42.445312 48.585938 42.445312 48.585938 L 48.625 45.707031 C 48.625 45.707031 47.546875 47.65625 46.789062 50.828125 L 47.113281 53.347656 C 45.4375 55.085938 44.160156 57.007812 42.65625 59.289062 L 42.171875 60.019531 C 40.046875 63.234375 37.746094 64.105469 33.917969 62.925781 L 33.761719 61.058594 L 32.507812 59.347656 L 37.222656 56.679688 Z M 126.253906 40 C 127.496094 37.9375 128.851562 35.207031 129.792969 31.980469 L 131.230469 27.058594 L 126.675781 29.417969 C 126.144531 29.695312 125.164062 30.183594 124.078125 30.695312 C 124.539062 28.554688 124.949219 25.691406 125.027344 22.132812 L 125.160156 16.121094 L 121.1875 20.636719 C 121.074219 20.761719 111.609375 31.320312 98.683594 31.320312 C 96.738281 31.320312 94.707031 31.0625 92.625 30.511719 C 90.800781 28.191406 88.320312 26.234375 85.304688 24.957031 C 81.222656 23.230469 76.789062 22.980469 72.820312 24.253906 C 71.441406 24.699219 70.183594 25.316406 69.046875 26.070312 C 68.207031 26.625 67.441406 27.261719 66.753906 27.96875 C 65.265625 26.460938 63.417969 25.296875 61.3125 24.632812 C 55.726562 22.871094 49.691406 24.628906 46.289062 25.996094 C 45.871094 24.90625 45.199219 24.078125 44.515625 23.46875 C 44.164062 23.15625 43.816406 22.898438 43.5 22.699219 C 43.078125 22.429688 42.570312 22.832031 42.71875 23.304688 C 42.941406 24.035156 43.035156 24.714844 43.050781 25.363281 C 43.160156 29.273438 39.980469 31.726562 38.390625 32.699219 C 36.714844 33.558594 34.6875 33.992188 32.304688 33.964844 C 28.195312 33.914062 24.582031 32.53125 24.546875 32.519531 L 24.519531 32.507812 C 21.796875 30.535156 18.785156 30.902344 17.074219 31.375 C 16.621094 31.5 16.609375 32.140625 17.054688 32.300781 C 18.761719 32.917969 20.019531 33.714844 20.914062 34.433594 C 19.859375 35.671875 18.285156 37.617188 16.941406 39.636719 C 15.59375 38.265625 13.957031 36.074219 13.824219 33.414062 L 13.785156 32.691406 L 13.339844 32.132812 C 13.316406 32.101562 11.730469 30.058594 10.351562 26.480469 C 10.800781 26.257812 14.449219 24.484375 19.117188 23.34375 C 19.398438 23.273438 19.671875 23.496094 19.648438 23.78125 C 19.613281 24.273438 19.523438 25.042969 19.3125 25.910156 C 19.242188 26.199219 19.484375 26.46875 19.777344 26.425781 C 20.402344 26.335938 21.4375 26.125 22.5625 25.644531 C 22.664062 25.597656 22.75 25.515625 22.792969 25.414062 C 23.082031 24.703125 24.1875 21.761719 23.390625 19.804688 C 23.320312 19.632812 23.140625 19.535156 22.957031 19.554688 C 21.417969 19.722656 14.363281 20.617188 9.34375 23.367188 C 9.101562 22.453125 8.886719 21.484375 8.71875 20.453125 C 11.351562 19.15625 18.050781 16.316406 28.292969 15.027344 L 31.894531 14.574219 L 29.699219 11.324219 C 31.273438 10.839844 33.519531 10.238281 36.34375 9.707031 C 41.714844 8.695312 50.335938 7.742188 60.878906 8.945312 C 70.035156 9.992188 78.644531 12.746094 86.972656 15.40625 C 94.597656 17.839844 101.917969 20.179688 108.894531 20.886719 C 108.066406 21.230469 107.144531 21.550781 106.136719 21.832031 C 98.84375 23.304688 89.816406 20.605469 86.878906 20.519531 C 83.425781 20.417969 81.507812 22.003906 81.507812 22.003906 C 88.183594 22.6875 91.898438 26.609375 91.902344 26.613281 C 109.0625 29.707031 117.648438 20.597656 118.007812 20.207031 L 122.011719 15.839844 L 116.121094 16.480469 C 107.828125 17.378906 98.355469 14.355469 88.328125 11.152344 C 79.796875 8.429688 70.976562 5.609375 61.382812 4.511719 C 39.957031 2.058594 25.941406 7.867188 25.355469 8.113281 L 22.859375 9.171875 L 24.179688 11.125 C 11.996094 13.1875 5.433594 17.125 5.136719 17.304688 L 3.925781 18.046875 L 4.082031 19.457031 C 4.957031 27.339844 8.230469 32.628906 9.421875 34.332031 C 10.132812 40.753906 16 44.726562 16.261719 44.898438 L 18.320312 46.265625 L 19.46875 44.078125 C 20.210938 42.664062 21.316406 41.105469 22.367188 39.734375 C 22.257812 40.148438 22.144531 40.539062 22.027344 40.839844 L 21.65625 41.800781 L 22.714844 42.75 C 21.878906 43.828125 21.023438 45.164062 20.953125 46.183594 C 20.84375 47.734375 21.292969 52.960938 21.34375 53.550781 L 21.414062 54.382812 L 26.628906 56.984375 L 29.136719 55.832031 C 29.226562 56.328125 29.292969 56.742188 29.308594 56.945312 L 29.128906 57.839844 L 28.128906 58.40625 L 30.429688 61.546875 L 28.992188 60.917969 L 28.558594 63.792969 C 28.066406 67.082031 28.710938 73.421875 34.335938 75.105469 C 35.566406 76.957031 38.839844 80.757812 44.933594 80.757812 C 45.316406 80.757812 45.714844 80.742188 46.125 80.710938 C 51.128906 80.320312 53.410156 76.5 55.617188 72.804688 C 57.886719 69.007812 60.230469 65.085938 65.714844 62.964844 C 67.523438 62.265625 69.300781 61.628906 71.023438 61.015625 C 77.03125 58.871094 82.816406 56.792969 86.234375 52.867188 C 86.316406 52.84375 86.398438 52.820312 86.480469 52.792969 C 89.421875 52.808594 97.65625 53.195312 107.632812 56.683594 L 108.082031 56.839844 L 108.554688 56.796875 C 109.082031 56.75 121.617188 55.492188 129.039062 43.234375 L 131.394531 39.351562 Z M 126.253906 40 "/>
<path fill-rule="nonzero" fill="rgb(13.725281%, 12.156677%, 12.548828%)" fill-opacity="1" d="M 81.226562 35.183594 C 79.613281 34.503906 77.832031 35.074219 77.246094 36.460938 C 77.085938 36.835938 77.042969 37.234375 77.078125 37.632812 C 77.101562 37.558594 77.113281 37.480469 77.144531 37.410156 C 77.632812 36.25 79.121094 35.773438 80.46875 36.34375 C 81.8125 36.914062 82.507812 38.3125 82.015625 39.46875 C 81.847656 39.871094 81.554688 40.179688 81.199219 40.402344 C 82.039062 40.214844 82.75 39.707031 83.082031 38.929688 C 83.667969 37.542969 82.835938 35.867188 81.226562 35.183594 "/>
<path fill-rule="nonzero" fill="rgb(13.725281%, 12.156677%, 12.548828%)" fill-opacity="1" d="M 85.175781 31.777344 L 85.175781 31.773438 L 85.171875 31.777344 C 84.648438 31.429688 84.089844 31.121094 83.484375 30.863281 C 80.636719 29.660156 77.632812 29.898438 75.390625 31.203125 C 75.425781 31.191406 75.46875 31.1875 75.507812 31.183594 C 77.433594 30.800781 79.5625 30.96875 81.621094 31.839844 C 82.261719 32.113281 82.855469 32.441406 83.410156 32.808594 C 83.429688 32.820312 83.453125 32.832031 83.472656 32.84375 L 83.476562 32.839844 L 83.476562 32.847656 C 83.882812 33.121094 84.261719 33.417969 84.621094 33.734375 C 85.871094 34.835938 86.800781 36.179688 87.332031 37.617188 C 87.34375 37.644531 87.351562 37.671875 87.363281 37.699219 C 88.003906 39.5 88.035156 41.433594 87.292969 43.214844 C 87.40625 43.097656 87.515625 42.972656 87.625 42.847656 C 88.035156 42.375 88.386719 41.855469 88.636719 41.257812 C 90.046875 37.933594 88.507812 34.007812 85.175781 31.777344 "/>
<path fill-rule="nonzero" fill="rgb(13.725281%, 12.156677%, 12.548828%)" fill-opacity="1" d="M 41.296875 12.933594 C 42.527344 12.148438 42.148438 12.335938 43.5 11.664062 C 44.851562 10.996094 44.164062 10.535156 42.625 10.699219 C 41.085938 10.859375 41.261719 10.730469 39.652344 11.324219 C 38.039062 11.914062 34.984375 12.601562 34.984375 12.601562 C 34.984375 12.601562 36.703125 13.519531 37.617188 13.703125 C 38.527344 13.882812 40.066406 13.71875 41.296875 12.933594 "/>
<path fill-rule="nonzero" fill="rgb(13.725281%, 12.156677%, 12.548828%)" fill-opacity="1" d="M 55.832031 19.132812 C 55.832031 19.132812 57.554688 19.472656 59.066406 19.511719 C 60.578125 19.554688 61.628906 19.292969 62.171875 18.652344 C 62.710938 18.011719 62.378906 18.046875 62.070312 17.695312 C 61.765625 17.34375 61.589844 17.183594 60.5625 16.839844 C 59.539062 16.496094 57.878906 16.332031 57.878906 16.332031 C 58.792969 17.113281 58.609375 17.742188 58.25 18.160156 C 57.886719 18.582031 55.832031 19.132812 55.832031 19.132812 "/>
<path fill-rule="nonzero" fill="rgb(13.725281%, 12.156677%, 12.548828%)" fill-opacity="1" d="M 62.3125 11.285156 C 61.027344 10.863281 56.039062 10.464844 53.972656 10.898438 C 53.972656 10.898438 55.097656 11.132812 55.957031 12.398438 C 56.8125 13.664062 58.371094 13.484375 59.945312 13.121094 C 61.519531 12.757812 62.292969 13.117188 62.933594 12.765625 C 63.582031 12.414062 63.597656 11.710938 62.3125 11.285156 "/>
<path fill-rule="nonzero" fill="rgb(13.725281%, 12.156677%, 12.548828%)" fill-opacity="1" d="M 78.445312 18.152344 C 79.929688 17.914062 80.085938 18.136719 80.054688 17.480469 C 80.027344 16.824219 77.089844 16.738281 76.0625 16.78125 C 75.757812 16.792969 71.816406 16.964844 71.542969 17.542969 C 71.273438 18.117188 72.066406 18.589844 71.40625 19.082031 C 70.746094 19.570312 68.070312 19.933594 67.476562 20.660156 C 66.882812 21.386719 69.75 21.792969 70.257812 21.828125 C 70.765625 21.863281 71.527344 21.710938 72.558594 21.496094 C 73.59375 21.277344 75 21.335938 75.691406 21.011719 C 76.378906 20.6875 77.09375 20.183594 76.3125 19.515625 C 75.527344 18.847656 76.960938 18.394531 78.445312 18.152344 "/>
<path fill-rule="nonzero" fill="rgb(13.725281%, 12.156677%, 12.548828%)" fill-opacity="1" d="M 71.265625 14.277344 C 72.714844 13.804688 72.136719 13.605469 71.886719 13 C 71.632812 12.394531 71.089844 12.65625 69.925781 12.617188 C 68.761719 12.574219 66.5625 12.449219 66.453125 13.335938 C 66.339844 14.222656 64.84375 15.257812 64.84375 15.257812 C 64.84375 15.257812 66.757812 15.882812 68.679688 15.203125 C 70.597656 14.527344 69.816406 14.753906 71.265625 14.277344 "/>
<path fill-rule="nonzero" fill="rgb(13.725281%, 12.156677%, 12.548828%)" fill-opacity="1" d="M 53.285156 64.65625 C 55.65625 60.996094 59.328125 59.210938 58.707031 59.035156 C 56.65625 58.464844 61.898438 55.613281 61.898438 55.613281 C 52.160156 57.269531 53.285156 64.65625 53.285156 64.65625 "/>
<path fill-rule="nonzero" fill="rgb(13.725281%, 12.156677%, 12.548828%)" fill-opacity="1" d="M 42.085938 39.707031 C 42.085938 39.707031 37.601562 38.667969 36.460938 38.996094 C 35.324219 39.324219 32.320312 42.082031 31.765625 42.210938 C 31.210938 42.34375 29.902344 42.046875 29.902344 42.046875 L 31.195312 43.339844 L 32.847656 43.628906 C 33.292969 44.289062 34.25 45.375 34.25 45.375 C 34.25 45.375 35.585938 43.59375 36.230469 42.699219 C 36.859375 41.824219 41.824219 39.8125 42.066406 39.714844 C 42.070312 39.714844 42.085938 39.707031 42.085938 39.707031 "/>
<path fill-rule="nonzero" fill="rgb(13.725281%, 12.156677%, 12.548828%)" fill-opacity="1" d="M 87.484375 56.660156 L 88.148438 56.660156 L 88.148438 58.496094 L 88.527344 58.496094 L 88.527344 56.660156 L 89.191406 56.660156 L 89.191406 56.34375 L 87.484375 56.34375 Z M 87.484375 56.660156 "/>
<path fill-rule="nonzero" fill="rgb(13.725281%, 12.156677%, 12.548828%)" fill-opacity="1" d="M 90.765625 57.929688 L 90.152344 56.34375 L 89.566406 56.34375 L 89.566406 58.496094 L 89.949219 58.496094 L 89.949219 56.75 L 89.957031 56.75 L 90.632812 58.496094 L 90.894531 58.496094 L 91.570312 56.75 L 91.574219 56.75 L 91.574219 58.496094 L 91.957031 58.496094 L 91.957031 56.34375 L 91.371094 56.34375 Z M 90.765625 57.929688 "/>
</svg>
