<?xml version="1.0" encoding="UTF-8"?>
<svg xmlns="http://www.w3.org/2000/svg" xmlns:xlink="http://www.w3.org/1999/xlink" width="138.12" height="20.52" viewBox="0 0 138.12 20.52">
<path fill-rule="nonzero" fill="rgb(100%, 72.157288%, 11.372375%)" fill-opacity="1" d="M 68.660156 5.886719 C 68.949219 5.769531 69.265625 5.550781 69.46875 5.324219 C 69.179688 5.324219 68.917969 5.027344 69.230469 4.339844 C 69.566406 3.601562 69.34375 3.480469 69.34375 3.480469 L 69.304688 3.46875 C 69.296875 3.472656 69.289062 3.476562 69.28125 3.480469 C 68.996094 3.550781 68.5 3.867188 68.050781 5.128906 C 68.050781 5.128906 68.402344 5.523438 68.660156 5.886719 "/>
<path fill-rule="nonzero" fill="rgb(100%, 72.157288%, 11.372375%)" fill-opacity="1" d="M 59.804688 10.144531 C 59.785156 10.179688 59.75 10.210938 59.707031 10.214844 L 59.253906 10.273438 C 59.167969 10.28125 59.097656 10.203125 59.125 10.121094 C 59.15625 10.015625 59.195312 9.882812 59.222656 9.757812 C 59.238281 9.683594 59.179688 9.613281 59.105469 9.613281 C 58.921875 9.617188 58.582031 9.625 58.25 9.664062 C 58.199219 9.671875 58.160156 9.707031 58.148438 9.757812 C 58.105469 9.953125 58.007812 10.472656 58.09375 10.902344 C 58.203125 11.449219 58.832031 11.390625 59.476562 11.265625 C 59.976562 11.167969 60.3125 11.226562 60.523438 11.3125 C 60.636719 11.359375 60.621094 11.523438 60.5 11.539062 C 60.039062 11.601562 59.570312 11.832031 59.238281 12.027344 C 59.382812 12.238281 59.542969 12.414062 59.691406 12.558594 C 60.003906 12.839844 60.304688 12.949219 60.519531 12.992188 C 60.585938 12.222656 60.925781 11.671875 60.941406 11.644531 L 61.039062 11.488281 L 61.21875 11.453125 C 61.613281 11.371094 61.875 11.183594 62.046875 10.972656 C 62.167969 10.785156 62.5 10.195312 62.324219 9.527344 C 62.300781 9.824219 62.070312 10.003906 61.832031 10.109375 C 61.566406 10.226562 61.300781 10.066406 61.148438 9.816406 C 60.839844 9.296875 59.976562 9.289062 59.976562 9.289062 C 59.996094 9.417969 59.996094 9.707031 59.804688 10.144531 "/>
<path fill-rule="nonzero" fill="rgb(100%, 72.157288%, 11.372375%)" fill-opacity="1" d="M 56.203125 9.269531 C 55.9375 9.148438 55.640625 9.15625 55.402344 9.191406 C 55.363281 9.226562 55.328125 9.253906 55.300781 9.28125 C 55.238281 10.410156 55.820312 11.058594 55.824219 11.0625 L 55.90625 11.152344 L 55.933594 11.265625 C 56.230469 12.652344 56.929688 13.0625 57.398438 13.179688 C 57.378906 12.804688 57.402344 12.472656 57.425781 12.261719 C 57.003906 12.144531 56.714844 11.886719 56.542969 11.671875 C 56.476562 11.589844 56.542969 11.464844 56.648438 11.480469 C 56.96875 11.53125 57.375 11.414062 57.320312 11.085938 C 57.269531 10.773438 57.359375 10.070312 57.394531 9.792969 C 57.402344 9.746094 57.382812 9.707031 57.347656 9.683594 L 57.238281 9.652344 C 57.117188 9.640625 56.941406 9.621094 56.746094 9.621094 C 56.6875 9.621094 56.640625 9.660156 56.628906 9.71875 C 56.613281 9.820312 56.597656 9.988281 56.632812 10.136719 C 56.652344 10.214844 56.582031 10.285156 56.503906 10.277344 L 56.191406 10.253906 C 56.136719 10.25 56.09375 10.210938 56.082031 10.160156 C 56.054688 10.023438 56.019531 9.730469 56.128906 9.347656 C 56.140625 9.3125 56.167969 9.28125 56.203125 9.269531 "/>
<path fill-rule="nonzero" fill="rgb(100%, 72.157288%, 11.372375%)" fill-opacity="1" d="M 64.742188 8.722656 C 65.199219 8.820312 65.808594 9.15625 66.128906 10.207031 C 66.710938 12.109375 65.226562 12.652344 64.242188 13.007812 C 64.046875 13.082031 63.859375 13.148438 63.695312 13.21875 C 63.1875 13.445312 63.097656 13.730469 62.960938 14.160156 C 62.878906 14.429688 62.78125 14.738281 62.566406 15.035156 C 62.492188 15.136719 62.402344 15.210938 62.304688 15.273438 C 62.332031 15.492188 62.304688 15.777344 62.066406 16.03125 C 61.78125 16.328125 61.472656 16.324219 61.28125 16.277344 C 61.21875 16.261719 61.207031 16.179688 61.265625 16.152344 C 61.558594 16.023438 61.527344 15.71875 61.527344 15.71875 C 61.046875 15.429688 60.828125 15.09375 60.730469 14.839844 C 60.5625 15.222656 60.558594 15.535156 60.558594 15.542969 L 60.558594 16.046875 L 59.464844 15.863281 L 59.398438 15.824219 C 59.1875 15.703125 59.003906 15.488281 58.847656 15.253906 C 58.824219 15.765625 58.9375 16.183594 59.089844 16.503906 C 59.445312 16.65625 60.796875 17.164062 62.007812 16.777344 C 63.363281 16.339844 62.613281 14.628906 64.179688 13.796875 C 64.441406 13.597656 64.851562 13.425781 65.527344 13.179688 C 66.148438 12.957031 66.503906 12.617188 66.707031 12.308594 C 66.917969 11.976562 67.1875 11.3125 66.871094 10.378906 C 66.867188 10.375 66.867188 10.367188 66.867188 10.359375 C 66.785156 10.070312 66.335938 8.640625 65.410156 8.214844 C 64.828125 7.949219 64.167969 7.925781 63.53125 8.132812 C 63.425781 8.195312 63.320312 8.242188 63.210938 8.257812 C 62.832031 8.425781 62.464844 8.675781 62.132812 9.007812 C 62.257812 9.03125 62.558594 9.117188 62.792969 9.359375 C 63.292969 8.925781 64.011719 8.566406 64.742188 8.722656 "/>
<path fill-rule="nonzero" fill="rgb(100%, 72.157288%, 11.372375%)" fill-opacity="1" d="M 66.710938 8.171875 C 66.71875 8.179688 67.398438 9.019531 67.671875 9.582031 L 67.828125 9.90625 L 68.105469 9.679688 C 68.179688 9.621094 68.847656 9.078125 69.074219 8.75 L 69.167969 8.609375 L 69.089844 8.457031 C 69.082031 8.441406 68.894531 8.082031 68.648438 7.757812 C 68.621094 7.714844 68.558594 7.707031 68.519531 7.742188 L 68.21875 7.984375 C 68.179688 8.011719 68.171875 8.066406 68.203125 8.105469 C 68.304688 8.242188 68.394531 8.386719 68.464844 8.5 C 68.484375 8.535156 68.480469 8.578125 68.449219 8.609375 C 68.347656 8.714844 68.21875 8.835938 68.089844 8.949219 C 68.046875 8.984375 67.984375 8.976562 67.953125 8.929688 C 67.773438 8.632812 67.554688 8.335938 67.394531 8.121094 C 67.363281 8.082031 67.371094 8.023438 67.414062 7.996094 L 68.507812 7.210938 C 68.402344 7.042969 68.300781 6.882812 68.203125 6.734375 L 66.519531 7.9375 Z M 66.710938 8.171875 "/>
<path fill-rule="nonzero" fill="rgb(100%, 72.157288%, 11.372375%)" fill-opacity="1" d="M 63.238281 7.78125 C 63.589844 7.742188 64.011719 6.945312 64.011719 6.945312 C 64.011719 6.945312 63.660156 6.871094 63.464844 6.945312 C 63.421875 6.960938 63.347656 7.015625 63.265625 7.085938 C 63.390625 7.097656 63.492188 7.199219 63.492188 7.328125 C 63.492188 7.464844 63.382812 7.574219 63.246094 7.574219 C 63.109375 7.574219 63 7.464844 63 7.328125 C 62.773438 7.546875 62.554688 7.78125 62.554688 7.78125 C 62.554688 7.78125 63.15625 7.789062 63.238281 7.78125 "/>
<path fill-rule="nonzero" fill="rgb(100%, 40.783691%, 11.372375%)" fill-opacity="1" d="M 65.871094 7.6875 C 65.402344 7.898438 64.871094 7.605469 64.871094 7.605469 C 64.871094 7.605469 65.105469 7.566406 65.304688 7.539062 C 65.503906 7.507812 65.675781 7.285156 65.527344 7.132812 C 65.378906 6.976562 65.34375 6.933594 65.34375 6.933594 C 65.34375 6.933594 65.695312 7.042969 65.9375 7.132812 C 66.183594 7.21875 66.34375 7.476562 65.871094 7.6875 M 64.347656 5.757812 C 64.347656 5.757812 64.132812 5.421875 64.035156 5.289062 C 63.839844 5.027344 63.371094 5.140625 63.371094 5.140625 C 63.871094 4.828125 64.386719 4.785156 64.433594 5.070312 C 64.480469 5.355469 64.347656 5.757812 64.347656 5.757812 M 63.316406 5.78125 C 63.101562 5.859375 62.515625 6.0625 62.015625 6.183594 C 61.972656 6.195312 61.933594 6.148438 61.953125 6.105469 C 62.050781 5.914062 62.402344 5.5 62.554688 5.445312 C 62.730469 5.378906 63.195312 5.453125 63.332031 5.683594 C 63.355469 5.722656 63.359375 5.765625 63.316406 5.78125 M 61.664062 4.8125 C 61.574219 4.753906 61.089844 4.828125 61.089844 4.828125 C 61.234375 4.578125 61.640625 4.453125 61.742188 4.566406 C 61.847656 4.679688 61.753906 4.875 61.664062 4.8125 M 59.953125 7.4375 C 59.953125 7.4375 60.492188 6.945312 60.695312 6.46875 C 60.695312 6.46875 61.339844 6.203125 61.664062 6.511719 C 61.664062 6.511719 61.042969 7.304688 59.953125 7.4375 M 60.445312 5.109375 C 60.878906 4.890625 61.164062 5.25 60.960938 5.339844 C 60.820312 5.402344 60.332031 5.753906 60.136719 5.960938 C 60.089844 6.015625 59.996094 5.980469 60 5.90625 C 60.019531 5.535156 60.445312 5.109375 60.445312 5.109375 M 58.546875 6.667969 C 58.546875 6.667969 58.816406 6.25 59.167969 6.328125 C 59.167969 6.328125 59.128906 7.242188 59.304688 7.472656 C 59.304688 7.472656 58.695312 7.453125 58.546875 6.667969 M 69.976562 3.207031 C 69.992188 2.980469 69.890625 2.757812 69.707031 2.609375 C 69.519531 2.457031 69.28125 2.40625 69.046875 2.472656 C 68.558594 2.609375 68.078125 2.824219 67.660156 3.046875 C 67.171875 3.339844 65.738281 4.273438 65.546875 5.152344 C 65.546875 5.152344 65.273438 4.332031 65.445312 3.824219 C 65.179688 3.730469 64.886719 3.667969 64.710938 3.714844 C 64.207031 3.847656 63.328125 4.230469 63.320312 4.234375 L 63.179688 4.296875 L 63.027344 4.253906 C 63.019531 4.253906 62.257812 4.027344 61.785156 3.941406 L 61.554688 3.898438 C 61.429688 3.910156 61.253906 3.953125 61.089844 4.078125 C 61.058594 4.101562 61.027344 4.125 60.996094 4.148438 L 59.933594 4.960938 C 59.933594 4.960938 59.917969 4.394531 60.332031 4.011719 C 60.34375 3.863281 60.359375 3.722656 60.382812 3.613281 C 60.429688 3.394531 60.429688 2.949219 60.605469 2.617188 C 60.382812 2.824219 60.125 3.125 59.941406 3.449219 C 59.675781 3.921875 59.453125 4.820312 59.386719 5.125 L 59.355469 5.28125 L 57.066406 7.023438 L 57.980469 7.792969 L 57.425781 8.089844 C 57.398438 8.105469 56.75 8.445312 56.117188 8.734375 C 55.816406 8.871094 55.566406 9.058594 55.402344 9.195312 C 55.640625 9.15625 55.9375 9.148438 56.203125 9.269531 C 56.390625 9.203125 57.023438 9.015625 57.816406 9.242188 C 57.832031 9.246094 57.847656 9.25 57.863281 9.246094 C 58.039062 9.214844 59.148438 9.023438 59.886719 9.191406 C 59.933594 9.203125 59.96875 9.238281 59.976562 9.289062 C 59.976562 9.289062 60.839844 9.296875 61.152344 9.816406 C 61.300781 10.066406 61.566406 10.226562 61.832031 10.109375 C 62.070312 10 62.300781 9.824219 62.324219 9.53125 C 62.285156 9.371094 62.21875 9.210938 62.109375 9.046875 C 62.097656 9.027344 62.109375 9 62.132812 9.003906 C 62.464844 8.675781 62.832031 8.425781 63.210938 8.257812 C 63.195312 8.257812 63.183594 8.261719 63.167969 8.265625 C 62.5625 8.304688 61.871094 8.265625 61.871094 8.265625 C 61.871094 8.265625 61.539062 8.488281 61.195312 8.496094 L 61.199219 8.5 C 61.199219 8.5 61.191406 8.496094 61.183594 8.496094 C 61.167969 8.496094 61.15625 8.5 61.140625 8.5 C 61.0625 8.503906 60.925781 8.546875 60.851562 8.757812 C 60.707031 9.140625 60.367188 9.066406 60.367188 9.066406 C 60.367188 9.066406 60.480469 8.820312 60.488281 8.546875 C 60.492188 8.277344 60.574219 8.066406 60.574219 8.066406 C 60.574219 8.066406 60.882812 8.195312 61.296875 8.117188 C 61.714844 8.035156 63.109375 6.433594 63.464844 6.304688 C 63.820312 6.175781 64.570312 6.582031 65.058594 6.988281 L 64.433594 7.15625 C 64.433594 7.15625 64.011719 7.835938 63.53125 8.132812 C 64.167969 7.925781 64.828125 7.949219 65.410156 8.214844 C 66.335938 8.640625 66.785156 10.070312 66.867188 10.359375 C 66.84375 10.25 66.964844 10.15625 67.066406 10.222656 C 67.257812 10.347656 67.492188 10.554688 67.636719 10.863281 C 68.707031 9.960938 69.367188 9.214844 69.421875 8.964844 C 69.355469 8.644531 68.925781 7.878906 68.507812 7.210938 L 67.414062 7.996094 C 67.371094 8.023438 67.363281 8.082031 67.394531 8.121094 C 67.554688 8.335938 67.773438 8.632812 67.953125 8.925781 C 67.984375 8.976562 68.046875 8.984375 68.089844 8.949219 C 68.21875 8.832031 68.347656 8.714844 68.449219 8.609375 C 68.480469 8.578125 68.484375 8.535156 68.464844 8.5 C 68.394531 8.386719 68.304688 8.242188 68.203125 8.105469 C 68.171875 8.066406 68.179688 8.011719 68.21875 7.980469 L 68.519531 7.742188 C 68.5625 7.710938 68.621094 7.714844 68.648438 7.757812 C 68.894531 8.082031 69.082031 8.441406 69.089844 8.457031 L 69.167969 8.609375 L 69.074219 8.75 C 68.847656 9.082031 68.179688 9.621094 68.105469 9.679688 L 67.828125 9.90625 L 67.671875 9.582031 C 67.398438 9.019531 66.71875 8.179688 66.710938 8.171875 L 66.519531 7.9375 L 68.203125 6.734375 C 68.175781 6.695312 68.148438 6.65625 68.125 6.621094 L 67.945312 6.359375 C 67.683594 6.027344 67.246094 5.515625 66.910156 5.316406 C 66.910156 5.316406 67.804688 3.59375 68.738281 3.261719 C 68.957031 3.183594 69.117188 3.15625 69.234375 3.15625 C 69.414062 3.15625 69.460938 3.402344 69.304688 3.46875 L 69.34375 3.480469 C 69.34375 3.480469 69.566406 3.601562 69.230469 4.339844 C 68.917969 5.027344 69.179688 5.324219 69.46875 5.324219 C 69.519531 5.265625 69.566406 5.207031 69.601562 5.148438 C 69.65625 5.054688 69.664062 4.992188 69.65625 4.976562 C 69.550781 4.6875 69.664062 4.261719 69.867188 3.597656 C 69.910156 3.453125 69.96875 3.261719 69.976562 3.207031 "/>
<path fill-rule="nonzero" fill="rgb(100%, 40.783691%, 11.372375%)" fill-opacity="1" d="M 57.238281 9.652344 L 57.347656 9.683594 C 57.332031 9.671875 57.316406 9.660156 57.292969 9.660156 C 57.277344 9.65625 57.257812 9.65625 57.238281 9.652344 "/>
<path fill-rule="nonzero" fill="rgb(100%, 40.783691%, 11.372375%)" fill-opacity="1" d="M 59.089844 16.503906 C 59.347656 17.050781 59.722656 17.324219 59.730469 17.328125 C 60.679688 17.714844 61.5 17.796875 62.15625 17.570312 C 63.019531 17.277344 63.214844 17.089844 63.550781 15.621094 C 63.617188 15.320312 63.652344 15.082031 63.679688 14.886719 C 63.757812 14.34375 63.855469 14.046875 64.179688 13.796875 C 62.613281 14.628906 63.363281 16.339844 62.007812 16.773438 C 60.796875 17.164062 59.445312 16.65625 59.089844 16.503906 "/>
<path fill-rule="nonzero" fill="rgb(100%, 40.783691%, 11.372375%)" fill-opacity="1" d="M 61.902344 13.820312 C 62.042969 13.394531 62.382812 12.65625 63.117188 12.328125 C 64.21875 11.835938 64.492188 11.796875 64.554688 11.683594 C 64.554688 11.683594 64.554688 11.023438 63.8125 11.28125 C 63.230469 11.484375 62.9375 12.023438 62.777344 12.011719 C 62.613281 12 62.359375 11.71875 61.882812 12.1875 C 61.398438 12.664062 61.550781 13.402344 61.691406 13.816406 C 61.726562 13.917969 61.871094 13.921875 61.902344 13.820312 "/>
<path fill-rule="nonzero" fill="rgb(13.725281%, 12.156677%, 12.548828%)" fill-opacity="1" d="M 63.238281 7.78125 C 63.15625 7.789062 62.554688 7.78125 62.554688 7.78125 C 62.554688 7.78125 62.773438 7.546875 63 7.328125 C 63 7.464844 63.109375 7.574219 63.246094 7.574219 C 63.382812 7.574219 63.492188 7.464844 63.492188 7.328125 C 63.492188 7.199219 63.390625 7.097656 63.265625 7.085938 C 63.347656 7.015625 63.421875 6.960938 63.464844 6.945312 C 63.660156 6.871094 64.011719 6.945312 64.011719 6.945312 C 64.011719 6.945312 63.589844 7.742188 63.238281 7.78125 M 63.464844 6.304688 C 63.109375 6.433594 61.714844 8.035156 61.296875 8.117188 C 60.882812 8.195312 60.574219 8.066406 60.574219 8.066406 C 60.574219 8.066406 60.492188 8.277344 60.488281 8.546875 C 60.480469 8.820312 60.367188 9.0625 60.367188 9.0625 C 60.367188 9.0625 60.707031 9.140625 60.847656 8.757812 C 60.925781 8.546875 61.0625 8.503906 61.140625 8.5 C 61.15625 8.5 61.171875 8.496094 61.1875 8.496094 C 61.195312 8.5 61.199219 8.5 61.199219 8.5 L 61.195312 8.496094 C 61.539062 8.488281 61.871094 8.265625 61.871094 8.265625 C 61.871094 8.265625 62.5625 8.304688 63.167969 8.265625 C 63.183594 8.261719 63.195312 8.257812 63.210938 8.257812 C 63.320312 8.242188 63.425781 8.195312 63.53125 8.132812 C 64.011719 7.835938 64.433594 7.15625 64.433594 7.15625 L 65.058594 6.988281 C 64.574219 6.582031 63.820312 6.175781 63.464844 6.304688 "/>
<path fill-rule="nonzero" fill="rgb(13.725281%, 12.156677%, 12.548828%)" fill-opacity="1" d="M 59.167969 6.328125 C 58.816406 6.25 58.546875 6.667969 58.546875 6.667969 C 58.695312 7.453125 59.304688 7.472656 59.304688 7.472656 C 59.128906 7.242188 59.167969 6.328125 59.167969 6.328125 "/>
<path fill-rule="nonzero" fill="rgb(13.725281%, 12.156677%, 12.548828%)" fill-opacity="1" d="M 61.664062 6.511719 C 61.339844 6.203125 60.695312 6.46875 60.695312 6.46875 C 60.492188 6.945312 59.953125 7.4375 59.953125 7.4375 C 61.042969 7.304688 61.664062 6.511719 61.664062 6.511719 "/>
<path fill-rule="nonzero" fill="rgb(13.725281%, 12.156677%, 12.548828%)" fill-opacity="1" d="M 60.136719 5.960938 C 60.332031 5.753906 60.820312 5.402344 60.960938 5.339844 C 61.164062 5.246094 60.878906 4.890625 60.445312 5.109375 C 60.445312 5.109375 60.019531 5.535156 60 5.90625 C 59.996094 5.980469 60.085938 6.015625 60.136719 5.960938 "/>
<path fill-rule="nonzero" fill="rgb(13.725281%, 12.156677%, 12.548828%)" fill-opacity="1" d="M 62.015625 6.183594 C 62.515625 6.0625 63.101562 5.859375 63.316406 5.78125 C 63.359375 5.765625 63.355469 5.722656 63.332031 5.683594 C 63.199219 5.453125 62.730469 5.378906 62.550781 5.445312 C 62.402344 5.5 62.050781 5.914062 61.953125 6.105469 C 61.933594 6.148438 61.972656 6.195312 62.015625 6.183594 "/>
<path fill-rule="nonzero" fill="rgb(13.725281%, 12.156677%, 12.548828%)" fill-opacity="1" d="M 61.664062 4.8125 C 61.753906 4.875 61.84375 4.679688 61.742188 4.566406 C 61.640625 4.453125 61.234375 4.578125 61.089844 4.824219 C 61.089844 4.824219 61.578125 4.753906 61.664062 4.8125 "/>
<path fill-rule="nonzero" fill="rgb(13.725281%, 12.156677%, 12.548828%)" fill-opacity="1" d="M 64.035156 5.289062 C 64.132812 5.421875 64.347656 5.757812 64.347656 5.757812 C 64.347656 5.757812 64.480469 5.355469 64.433594 5.070312 C 64.386719 4.785156 63.871094 4.824219 63.371094 5.140625 C 63.371094 5.140625 63.839844 5.027344 64.035156 5.289062 "/>
<path fill-rule="nonzero" fill="rgb(13.725281%, 12.156677%, 12.548828%)" fill-opacity="1" d="M 65.9375 7.132812 C 65.695312 7.042969 65.34375 6.933594 65.34375 6.933594 C 65.34375 6.933594 65.378906 6.976562 65.527344 7.132812 C 65.675781 7.285156 65.503906 7.507812 65.304688 7.539062 C 65.105469 7.566406 64.871094 7.601562 64.871094 7.601562 C 64.871094 7.601562 65.402344 7.898438 65.871094 7.6875 C 66.34375 7.476562 66.183594 7.21875 65.9375 7.132812 "/>
<path fill-rule="nonzero" fill="rgb(13.725281%, 12.156677%, 12.548828%)" fill-opacity="1" d="M 61.882812 12.183594 C 62.359375 11.71875 62.613281 12 62.777344 12.011719 C 62.9375 12.023438 63.230469 11.484375 63.808594 11.28125 C 64.550781 11.023438 64.550781 11.683594 64.550781 11.683594 C 64.492188 11.796875 64.21875 11.835938 63.117188 12.328125 C 62.382812 12.65625 62.042969 13.394531 61.902344 13.816406 C 61.867188 13.917969 61.726562 13.917969 61.691406 13.816406 C 61.550781 13.402344 61.398438 12.664062 61.882812 12.183594 M 69.867188 3.597656 C 69.664062 4.261719 69.550781 4.6875 69.65625 4.976562 C 69.664062 4.992188 69.65625 5.054688 69.601562 5.148438 C 69.566406 5.207031 69.519531 5.265625 69.46875 5.324219 C 69.265625 5.550781 68.949219 5.769531 68.660156 5.882812 C 68.398438 5.523438 68.050781 5.128906 68.050781 5.128906 C 68.5 3.867188 69 3.550781 69.28125 3.480469 C 69.289062 3.476562 69.296875 3.472656 69.304688 3.46875 C 69.460938 3.402344 69.417969 3.15625 69.234375 3.15625 C 69.121094 3.15625 68.960938 3.183594 68.734375 3.261719 C 67.804688 3.59375 66.90625 5.320312 66.90625 5.320312 C 67.246094 5.515625 67.683594 6.027344 67.949219 6.359375 L 68.125 6.621094 C 68.148438 6.65625 68.175781 6.695312 68.199219 6.734375 C 68.300781 6.882812 68.402344 7.042969 68.507812 7.210938 C 68.925781 7.878906 69.355469 8.644531 69.421875 8.964844 C 69.371094 9.214844 68.707031 9.960938 67.636719 10.863281 C 67.492188 10.554688 67.257812 10.347656 67.066406 10.222656 C 66.964844 10.15625 66.84375 10.25 66.867188 10.359375 C 66.867188 10.367188 66.867188 10.375 66.871094 10.378906 C 67.1875 11.3125 66.917969 11.976562 66.707031 12.308594 C 66.503906 12.617188 66.148438 12.957031 65.527344 13.179688 C 64.851562 13.425781 64.441406 13.597656 64.179688 13.796875 C 63.851562 14.046875 63.757812 14.34375 63.679688 14.886719 C 63.652344 15.082031 63.617188 15.320312 63.546875 15.621094 C 63.214844 17.089844 63.019531 17.277344 62.15625 17.570312 C 61.5 17.796875 60.679688 17.714844 59.730469 17.328125 C 59.722656 17.324219 59.347656 17.050781 59.089844 16.503906 C 58.9375 16.183594 58.824219 15.765625 58.847656 15.253906 C 59.003906 15.488281 59.1875 15.699219 59.398438 15.824219 L 59.464844 15.863281 L 60.554688 16.046875 L 60.558594 15.539062 C 60.558594 15.535156 60.5625 15.222656 60.730469 14.839844 C 60.828125 15.09375 61.046875 15.429688 61.523438 15.71875 C 61.523438 15.71875 61.558594 16.023438 61.265625 16.15625 C 61.207031 16.179688 61.222656 16.261719 61.28125 16.277344 C 61.472656 16.324219 61.78125 16.332031 62.066406 16.03125 C 62.304688 15.777344 62.332031 15.492188 62.304688 15.273438 C 62.402344 15.210938 62.492188 15.132812 62.566406 15.035156 C 62.78125 14.738281 62.878906 14.433594 62.964844 14.160156 C 63.097656 13.730469 63.1875 13.445312 63.695312 13.222656 C 63.859375 13.148438 64.046875 13.082031 64.242188 13.011719 C 65.226562 12.648438 66.710938 12.109375 66.132812 10.207031 C 65.808594 9.15625 65.195312 8.820312 64.742188 8.722656 C 64.011719 8.566406 63.292969 8.921875 62.792969 9.359375 C 62.558594 9.117188 62.257812 9.03125 62.132812 9.003906 C 62.109375 9 62.097656 9.027344 62.109375 9.046875 C 62.21875 9.207031 62.285156 9.371094 62.324219 9.53125 C 62.5 10.195312 62.167969 10.785156 62.046875 10.972656 C 61.875 11.1875 61.613281 11.371094 61.21875 11.453125 L 61.039062 11.488281 L 60.941406 11.644531 C 60.925781 11.671875 60.585938 12.222656 60.519531 12.992188 C 60.300781 12.953125 60.003906 12.839844 59.691406 12.558594 C 59.542969 12.414062 59.386719 12.234375 59.238281 12.027344 C 59.570312 11.832031 60.039062 11.601562 60.5 11.539062 C 60.621094 11.523438 60.636719 11.359375 60.523438 11.3125 C 60.3125 11.226562 59.976562 11.171875 59.476562 11.265625 C 58.832031 11.390625 58.203125 11.449219 58.09375 10.902344 C 58.007812 10.472656 58.105469 9.953125 58.148438 9.757812 C 58.15625 9.707031 58.199219 9.671875 58.25 9.667969 C 58.578125 9.625 58.921875 9.617188 59.105469 9.613281 C 59.179688 9.613281 59.238281 9.683594 59.222656 9.757812 C 59.195312 9.882812 59.160156 10.015625 59.125 10.121094 C 59.097656 10.203125 59.167969 10.28125 59.253906 10.273438 L 59.707031 10.214844 C 59.75 10.210938 59.785156 10.179688 59.804688 10.144531 C 59.996094 9.707031 59.992188 9.417969 59.976562 9.289062 C 59.96875 9.238281 59.933594 9.199219 59.886719 9.191406 C 59.148438 9.023438 58.039062 9.214844 57.863281 9.246094 C 57.847656 9.246094 57.832031 9.246094 57.816406 9.242188 C 57.023438 9.015625 56.390625 9.203125 56.203125 9.269531 C 56.167969 9.28125 56.140625 9.3125 56.128906 9.347656 C 56.019531 9.730469 56.054688 10.023438 56.082031 10.160156 C 56.09375 10.210938 56.136719 10.25 56.191406 10.253906 L 56.503906 10.277344 C 56.582031 10.285156 56.652344 10.214844 56.632812 10.136719 C 56.597656 9.988281 56.613281 9.820312 56.628906 9.71875 C 56.640625 9.660156 56.6875 9.621094 56.746094 9.621094 C 56.941406 9.621094 57.117188 9.640625 57.238281 9.652344 C 57.257812 9.65625 57.277344 9.65625 57.292969 9.660156 C 57.316406 9.664062 57.332031 9.671875 57.347656 9.683594 C 57.382812 9.707031 57.402344 9.746094 57.394531 9.792969 C 57.359375 10.070312 57.269531 10.773438 57.320312 11.085938 C 57.375 11.414062 56.96875 11.53125 56.648438 11.480469 C 56.542969 11.464844 56.476562 11.589844 56.542969 11.671875 C 56.714844 11.886719 57.003906 12.144531 57.425781 12.261719 C 57.402344 12.472656 57.378906 12.804688 57.398438 13.179688 C 56.929688 13.0625 56.230469 12.652344 55.933594 11.265625 L 55.90625 11.152344 L 55.824219 11.0625 C 55.820312 11.058594 55.238281 10.410156 55.300781 9.28125 C 55.328125 9.253906 55.363281 9.226562 55.402344 9.191406 C 55.566406 9.054688 55.816406 8.871094 56.117188 8.734375 C 56.75 8.449219 57.398438 8.105469 57.425781 8.089844 L 57.980469 7.792969 L 57.066406 7.023438 L 59.355469 5.28125 L 59.390625 5.125 C 59.453125 4.820312 59.675781 3.921875 59.941406 3.449219 C 60.125 3.125 60.382812 2.824219 60.605469 2.617188 C 60.429688 2.949219 60.429688 3.394531 60.382812 3.613281 C 60.359375 3.722656 60.339844 3.863281 60.328125 4.011719 C 59.917969 4.394531 59.933594 4.960938 59.933594 4.960938 L 60.996094 4.148438 C 61.027344 4.125 61.058594 4.101562 61.089844 4.078125 C 61.253906 3.953125 61.429688 3.910156 61.554688 3.898438 L 61.78125 3.941406 C 62.257812 4.027344 63.023438 4.25 63.03125 4.253906 L 63.179688 4.296875 L 63.320312 4.234375 C 63.328125 4.230469 64.207031 3.847656 64.710938 3.714844 C 64.886719 3.667969 65.179688 3.734375 65.445312 3.824219 C 65.273438 4.332031 65.546875 5.152344 65.546875 5.152344 C 65.742188 4.269531 67.171875 3.339844 67.660156 3.046875 C 68.078125 2.824219 68.558594 2.609375 69.050781 2.472656 C 69.28125 2.40625 69.519531 2.457031 69.707031 2.605469 C 69.890625 2.757812 69.988281 2.980469 69.976562 3.207031 C 69.96875 3.261719 69.910156 3.453125 69.867188 3.597656 M 58.332031 13.746094 L 58.296875 13.566406 C 58.226562 13.183594 58.238281 12.789062 58.257812 12.519531 L 58.535156 12.511719 C 58.722656 12.789062 58.917969 13.007812 59.113281 13.183594 C 59.25 13.316406 59.378906 13.425781 59.480469 13.507812 C 59.441406 13.609375 59.382812 13.738281 59.3125 13.871094 L 58.507812 13.285156 Z M 70.824219 3.269531 C 70.859375 2.761719 70.640625 2.265625 70.242188 1.945312 C 69.84375 1.621094 69.308594 1.511719 68.816406 1.652344 C 67.566406 2.003906 66.40625 2.769531 65.945312 3.097656 C 65.605469 2.960938 64.988281 2.761719 64.496094 2.890625 C 64.054688 3.007812 63.40625 3.273438 63.121094 3.394531 C 62.914062 3.335938 62.523438 3.226562 62.171875 3.152344 C 62.117188 3.023438 62.054688 2.917969 61.988281 2.832031 C 61.972656 2.804688 61.957031 2.710938 61.949219 2.648438 C 61.910156 2.410156 61.855469 2.050781 61.519531 1.71875 C 61.351562 1.550781 61.125 1.476562 60.882812 1.511719 C 60.152344 1.613281 59.40625 2.667969 59.199219 3.03125 C 58.890625 3.578125 58.671875 4.441406 58.589844 4.792969 L 55.703125 6.992188 L 56.457031 7.625 C 56.25 7.730469 56.003906 7.851562 55.765625 7.957031 C 55.070312 8.273438 54.597656 8.773438 54.578125 8.796875 L 54.480469 8.898438 L 54.464844 9.042969 C 54.324219 10.390625 54.898438 11.269531 55.121094 11.550781 C 55.640625 13.742188 57.175781 14.15625 57.929688 14.066406 L 58.226562 14.03125 C 57.433594 16.40625 58.910156 17.914062 59.398438 18.113281 C 60.109375 18.402344 60.773438 18.546875 61.375 18.546875 C 61.75 18.546875 62.101562 18.492188 62.433594 18.378906 C 63.707031 17.941406 64.023438 17.382812 64.378906 15.808594 C 64.457031 15.476562 64.492188 15.21875 64.523438 15.011719 C 64.574219 14.65625 64.59375 14.566406 64.671875 14.492188 C 64.816406 14.363281 65.203125 14.207031 65.820312 13.980469 C 67.378906 13.417969 67.734375 12.257812 67.8125 11.824219 C 70.410156 9.726562 70.300781 9.0625 70.265625 8.847656 C 70.171875 8.296875 69.542969 7.242188 69.136719 6.609375 C 69.625 6.378906 70.101562 5.980469 70.335938 5.578125 C 70.554688 5.207031 70.53125 4.90625 70.46875 4.710938 C 70.46875 4.554688 70.613281 4.074219 70.683594 3.84375 C 70.773438 3.539062 70.820312 3.390625 70.824219 3.269531 "/>
<path fill-rule="nonzero" fill="rgb(13.725281%, 12.156677%, 12.548828%)" fill-opacity="1" d="M 65.035156 15.042969 L 65.035156 14.691406 L 65.160156 14.691406 L 65.160156 14.632812 L 64.835938 14.632812 L 64.835938 14.691406 L 64.960938 14.691406 L 64.960938 15.042969 Z M 65.035156 15.042969 "/>
<path fill-rule="nonzero" fill="rgb(13.725281%, 12.156677%, 12.548828%)" fill-opacity="1" d="M 65.6875 15.042969 L 65.6875 14.632812 L 65.578125 14.632812 L 65.460938 14.933594 L 65.34375 14.632812 L 65.230469 14.632812 L 65.230469 15.042969 L 65.304688 15.042969 L 65.304688 14.707031 L 65.433594 15.042969 L 65.484375 15.042969 L 65.613281 14.707031 L 65.617188 14.707031 L 65.617188 15.042969 Z M 65.6875 15.042969 "/>
<path fill-rule="nonzero" fill="rgb(100%, 40.783691%, 11.372375%)" fill-opacity="1" d="M 3.792969 7.316406 L 5.773438 7.316406 L 4.925781 13.359375 L 7.007812 13.359375 C 7.175781 13.359375 7.332031 13.214844 7.359375 13.046875 L 8.207031 7.003906 C 8.234375 6.835938 8.117188 6.691406 7.945312 6.691406 L 3.882812 6.691406 L 4.144531 4.816406 L 8.832031 4.816406 C 9.757812 4.816406 10.394531 5.558594 10.261719 6.484375 L 9.261719 13.566406 C 9.144531 14.492188 8.285156 15.234375 7.359375 15.234375 L 2.671875 15.234375 Z M 3.792969 7.316406 "/>
<path fill-rule="nonzero" fill="rgb(100%, 40.783691%, 11.372375%)" fill-opacity="1" d="M 12.320312 4.816406 L 17.84375 4.816406 L 17.582031 6.691406 L 12.0625 6.691406 Z M 11.96875 7.316406 L 13.949219 7.316406 L 13.703125 9.085938 L 16.515625 9.085938 L 16.253906 10.960938 L 13.441406 10.960938 L 13.140625 13.046875 C 13.117188 13.214844 13.234375 13.359375 13.414062 13.359375 L 16.644531 13.359375 L 16.371094 15.234375 L 10.851562 15.234375 Z M 11.96875 7.316406 "/>
<path fill-rule="nonzero" fill="rgb(100%, 40.783691%, 11.372375%)" fill-opacity="1" d="M 19.5625 4.816406 L 21.539062 4.816406 L 21.28125 6.691406 L 19.300781 6.691406 Z M 19.210938 7.316406 L 21.1875 7.316406 L 20.382812 13.046875 C 20.355469 13.214844 20.472656 13.359375 20.65625 13.359375 L 22.425781 13.359375 C 22.59375 13.359375 22.75 13.214844 22.777344 13.046875 L 23.078125 10.960938 L 25.054688 10.960938 L 24.445312 15.234375 L 18.089844 15.234375 Z M 19.210938 7.316406 "/>
<path fill-rule="nonzero" fill="rgb(100%, 40.783691%, 11.372375%)" fill-opacity="1" d="M 32.363281 4.816406 L 36.421875 4.816406 L 36.164062 6.691406 L 30.433594 6.691406 L 30.460938 6.484375 C 30.589844 5.558594 31.4375 4.816406 32.363281 4.816406 M 29.457031 13.566406 L 29.691406 11.898438 L 31.671875 11.898438 L 31.515625 13.046875 C 31.488281 13.214844 31.605469 13.359375 31.789062 13.359375 L 33.558594 13.359375 C 33.730469 13.359375 33.886719 13.214844 33.910156 13.046875 L 34.210938 10.960938 C 34.222656 10.792969 34.105469 10.648438 33.9375 10.648438 L 31.542969 10.648438 C 30.617188 10.648438 29.976562 9.910156 30.109375 8.984375 L 30.34375 7.316406 L 32.324219 7.316406 L 32.152344 8.464844 C 32.140625 8.632812 32.257812 8.777344 32.425781 8.777344 L 34.824219 8.777344 C 35.746094 8.777344 36.382812 9.519531 36.253906 10.441406 L 35.8125 13.566406 C 35.683594 14.492188 34.835938 15.234375 33.910156 15.234375 L 30.890625 15.234375 C 29.976562 15.234375 29.328125 14.492188 29.457031 13.566406 "/>
<path fill-rule="nonzero" fill="rgb(100%, 40.783691%, 11.372375%)" fill-opacity="1" d="M 37.519531 13.566406 L 38.402344 7.316406 L 40.382812 7.316406 L 39.578125 13.046875 C 39.550781 13.214844 39.667969 13.359375 39.847656 13.359375 L 41.621094 13.359375 C 41.789062 13.359375 41.945312 13.214844 41.972656 13.046875 L 42.816406 7.003906 C 42.84375 6.835938 42.726562 6.691406 42.542969 6.691406 L 38.480469 6.691406 L 38.519531 6.484375 C 38.652344 5.558594 39.5 4.816406 40.421875 4.816406 L 43.441406 4.816406 C 44.355469 4.816406 45.003906 5.558594 44.875 6.484375 L 43.871094 13.566406 C 43.742188 14.492188 42.894531 15.234375 41.972656 15.234375 L 38.949219 15.234375 C 38.039062 15.234375 37.386719 14.492188 37.519531 13.566406 "/>
<path fill-rule="nonzero" fill="rgb(100%, 40.783691%, 11.372375%)" fill-opacity="1" d="M 46.933594 4.816406 L 48.914062 4.816406 L 48.652344 6.691406 L 46.671875 6.691406 Z M 46.582031 7.316406 L 48.5625 7.316406 L 47.753906 13.046875 C 47.726562 13.214844 47.84375 13.359375 48.027344 13.359375 L 49.796875 13.359375 C 49.96875 13.359375 50.125 13.214844 50.148438 13.046875 L 50.449219 10.960938 L 52.425781 10.960938 L 51.816406 15.234375 L 45.460938 15.234375 Z M 46.582031 7.316406 "/>
<path fill-rule="nonzero" fill="rgb(100%, 40.783691%, 11.372375%)" fill-opacity="1" d="M 52.246094 15.234375 L 52.246094 14.882812 L 52.371094 14.882812 L 52.371094 14.824219 L 52.046875 14.824219 L 52.046875 14.882812 L 52.175781 14.882812 L 52.175781 15.234375 Z M 52.246094 15.234375 "/>
<path fill-rule="nonzero" fill="rgb(100%, 40.783691%, 11.372375%)" fill-opacity="1" d="M 52.898438 15.234375 L 52.898438 14.824219 L 52.789062 14.824219 L 52.671875 15.125 L 52.558594 14.824219 L 52.445312 14.824219 L 52.445312 15.234375 L 52.515625 15.234375 L 52.515625 14.898438 L 52.519531 14.898438 L 52.648438 15.234375 L 52.699219 15.234375 L 52.828125 14.898438 L 52.828125 15.234375 Z M 52.898438 15.234375 "/>
<path fill-rule="nonzero" fill="rgb(100%, 40.783691%, 11.372375%)" fill-opacity="1" d="M 75.34375 4.820312 L 79.402344 4.820312 L 79.140625 6.695312 L 73.417969 6.695312 L 73.441406 6.484375 C 73.570312 5.5625 74.417969 4.820312 75.34375 4.820312 M 72.441406 13.566406 L 72.675781 11.898438 L 74.652344 11.898438 L 74.496094 13.042969 C 74.46875 13.214844 74.585938 13.359375 74.769531 13.359375 L 76.539062 13.359375 C 76.707031 13.359375 76.863281 13.214844 76.890625 13.042969 L 77.191406 10.964844 C 77.203125 10.792969 77.085938 10.648438 76.917969 10.648438 L 74.523438 10.648438 C 73.597656 10.648438 72.960938 9.910156 73.089844 8.984375 L 73.324219 7.316406 L 75.304688 7.316406 L 75.132812 8.464844 C 75.121094 8.632812 75.238281 8.777344 75.40625 8.777344 L 77.800781 8.777344 C 78.726562 8.777344 79.363281 9.519531 79.234375 10.441406 L 78.789062 13.566406 C 78.660156 14.488281 77.816406 15.230469 76.890625 15.230469 L 73.871094 15.230469 C 72.960938 15.230469 72.308594 14.488281 72.441406 13.566406 "/>
<path fill-rule="nonzero" fill="rgb(100%, 40.783691%, 11.372375%)" fill-opacity="1" d="M 80.515625 13.566406 L 81.398438 7.316406 L 83.375 7.316406 L 82.570312 13.042969 C 82.542969 13.214844 82.660156 13.359375 82.84375 13.359375 L 84.613281 13.359375 C 84.78125 13.359375 84.9375 13.214844 84.964844 13.042969 L 85.808594 7.007812 C 85.835938 6.835938 85.71875 6.695312 85.539062 6.695312 L 81.476562 6.695312 L 81.515625 6.484375 C 81.644531 5.5625 82.492188 4.820312 83.414062 4.820312 L 86.433594 4.820312 C 87.347656 4.820312 87.996094 5.5625 87.867188 6.484375 L 86.863281 13.566406 C 86.734375 14.492188 85.886719 15.230469 84.964844 15.230469 L 81.945312 15.230469 C 81.035156 15.230469 80.382812 14.492188 80.515625 13.566406 "/>
<path fill-rule="nonzero" fill="rgb(100%, 40.783691%, 11.372375%)" fill-opacity="1" d="M 89.941406 4.820312 L 95.457031 4.820312 L 95.199219 6.695312 L 89.679688 6.695312 Z M 89.589844 7.316406 L 91.566406 7.316406 L 91.320312 9.085938 L 94.128906 9.085938 L 93.871094 10.964844 L 91.058594 10.964844 L 90.445312 15.230469 L 88.46875 15.230469 Z M 89.589844 7.316406 "/>
<path fill-rule="nonzero" fill="rgb(100%, 40.783691%, 11.372375%)" fill-opacity="1" d="M 98.390625 7.316406 L 100.367188 7.316406 L 99.261719 15.230469 L 97.285156 15.230469 Z M 96.554688 4.820312 L 102.90625 4.820312 L 102.644531 6.695312 L 96.296875 6.695312 Z M 96.554688 4.820312 "/>
<path fill-rule="nonzero" fill="rgb(100%, 40.783691%, 11.372375%)" fill-opacity="1" d="M 104.082031 7.316406 L 106.058594 7.316406 L 105.214844 13.359375 L 107.296875 13.359375 C 107.464844 13.359375 107.621094 13.214844 107.648438 13.042969 L 107.894531 11.273438 C 107.921875 11.105469 107.804688 10.964844 107.632812 10.964844 L 106.230469 10.964844 L 106.488281 9.085938 L 107.894531 9.085938 C 108.0625 9.085938 108.21875 8.945312 108.246094 8.777344 L 108.492188 7.007812 C 108.519531 6.835938 108.402344 6.695312 108.234375 6.695312 L 104.171875 6.695312 L 104.433594 4.820312 L 109.117188 4.820312 C 110.042969 4.820312 110.679688 5.5625 110.550781 6.484375 L 110.210938 8.878906 C 110.144531 9.386719 109.859375 9.777344 109.46875 10.027344 C 109.792969 10.273438 109.964844 10.664062 109.886719 11.171875 L 109.546875 13.566406 C 109.429688 14.492188 108.570312 15.230469 107.648438 15.230469 L 102.960938 15.230469 Z M 104.082031 7.316406 "/>
<path fill-rule="nonzero" fill="rgb(100%, 40.783691%, 11.372375%)" fill-opacity="1" d="M 112.179688 8.84375 L 114.847656 4.820312 L 116.828125 4.820312 L 118.375 8.84375 C 118.480469 9.140625 118.519531 9.464844 118.46875 9.804688 L 117.710938 15.230469 L 115.734375 15.230469 L 116.03125 13.042969 L 114.003906 13.042969 L 114.277344 11.171875 L 116.308594 11.171875 L 116.4375 10.207031 C 116.476562 9.949219 116.449219 9.699219 116.371094 9.464844 L 115.511719 7.109375 L 114.015625 9.464844 C 113.859375 9.699219 113.769531 9.949219 113.730469 10.207031 L 113.027344 15.230469 L 111.046875 15.230469 L 111.804688 9.804688 C 111.855469 9.464844 111.984375 9.140625 112.179688 8.84375 "/>
<path fill-rule="nonzero" fill="rgb(100%, 40.783691%, 11.372375%)" fill-opacity="1" d="M 121.007812 4.820312 L 122.988281 4.820312 L 122.726562 6.695312 L 120.75 6.695312 Z M 120.65625 7.316406 L 122.636719 7.316406 L 121.828125 13.042969 C 121.800781 13.214844 121.921875 13.359375 122.101562 13.359375 L 123.871094 13.359375 C 124.042969 13.359375 124.195312 13.214844 124.222656 13.042969 L 124.523438 10.964844 L 126.5 10.964844 L 125.890625 15.230469 L 119.539062 15.230469 Z M 120.65625 7.316406 "/>
<path fill-rule="nonzero" fill="rgb(100%, 40.783691%, 11.372375%)" fill-opacity="1" d="M 129.09375 4.820312 L 131.074219 4.820312 L 130.8125 6.695312 L 128.835938 6.695312 Z M 128.742188 7.316406 L 130.722656 7.316406 L 129.914062 13.042969 C 129.886719 13.214844 130.007812 13.359375 130.1875 13.359375 L 131.957031 13.359375 C 132.128906 13.359375 132.285156 13.214844 132.308594 13.042969 L 132.609375 10.964844 L 134.585938 10.964844 L 133.976562 15.230469 L 127.625 15.230469 Z M 128.742188 7.316406 "/>
</svg>
