<?xml version="1.0" encoding="UTF-8"?>
<svg xmlns="http://www.w3.org/2000/svg" xmlns:xlink="http://www.w3.org/1999/xlink" width="123.24" height="85.8" viewBox="0 0 123.24 85.8">
<path fill-rule="nonzero" fill="rgb(100%, 40.783691%, 11.372375%)" fill-opacity="1" d="M 3.597656 72.605469 L 8.332031 65.46875 L 11.84375 65.46875 L 14.589844 72.605469 C 14.773438 73.136719 14.84375 73.714844 14.75 74.316406 L 13.414062 83.945312 L 9.902344 83.945312 L 10.433594 80.066406 L 6.828125 80.066406 L 7.316406 76.738281 L 10.917969 76.738281 L 11.148438 75.03125 C 11.21875 74.570312 11.171875 74.128906 11.03125 73.714844 L 9.507812 69.535156 L 6.851562 73.714844 C 6.574219 74.128906 6.414062 74.570312 6.34375 75.03125 L 5.097656 83.945312 L 1.585938 83.945312 L 2.925781 74.316406 C 3.019531 73.714844 3.25 73.136719 3.597656 72.605469 "/>
<path fill-rule="nonzero" fill="rgb(100%, 40.783691%, 11.372375%)" fill-opacity="1" d="M 21.730469 69.902344 L 25.238281 69.902344 L 23.277344 83.949219 L 19.765625 83.949219 Z M 18.472656 65.46875 L 29.746094 65.46875 L 29.28125 68.792969 L 18.011719 68.792969 Z M 18.472656 65.46875 "/>
<path fill-rule="nonzero" fill="rgb(100%, 40.783691%, 11.372375%)" fill-opacity="1" d="M 40.164062 65.46875 L 43.671875 65.46875 L 43.210938 68.792969 L 39.699219 68.792969 Z M 38.636719 76.371094 L 35.589844 76.371094 L 36.050781 73.042969 L 39.097656 73.042969 L 39.539062 69.902344 L 43.050781 69.902344 L 41.085938 83.945312 L 37.574219 83.945312 Z M 32.402344 65.46875 L 35.914062 65.46875 L 35.449219 68.792969 L 31.941406 68.792969 Z M 31.777344 69.902344 L 35.289062 69.902344 L 33.324219 83.945312 L 29.816406 83.945312 Z M 31.777344 69.902344 "/>
<path fill-rule="nonzero" fill="rgb(100%, 40.783691%, 11.372375%)" fill-opacity="1" d="M 47.09375 65.46875 L 50.605469 65.46875 L 50.144531 68.792969 L 46.632812 68.792969 Z M 46.46875 69.902344 L 49.980469 69.902344 L 48.550781 80.066406 C 48.503906 80.367188 48.710938 80.621094 49.035156 80.621094 L 52.175781 80.621094 C 52.476562 80.621094 52.753906 80.367188 52.800781 80.066406 L 53.328125 76.371094 L 56.839844 76.371094 L 55.753906 83.945312 L 44.484375 83.945312 Z M 46.46875 69.902344 "/>
<path fill-rule="nonzero" fill="rgb(100%, 40.783691%, 11.372375%)" fill-opacity="1" d="M 61.414062 65.46875 L 71.210938 65.46875 L 70.746094 68.792969 L 60.953125 68.792969 Z M 60.792969 69.902344 L 64.300781 69.902344 L 63.863281 73.042969 L 68.851562 73.042969 L 68.390625 76.371094 L 63.402344 76.371094 L 62.871094 80.066406 C 62.824219 80.367188 63.03125 80.621094 63.355469 80.621094 L 69.085938 80.621094 L 68.597656 83.945312 L 58.804688 83.945312 Z M 60.792969 69.902344 "/>
<path fill-rule="nonzero" fill="rgb(100%, 40.783691%, 11.372375%)" fill-opacity="1" d="M 76.753906 69.902344 L 80.265625 69.902344 L 78.300781 83.949219 L 74.789062 83.949219 Z M 73.496094 65.46875 L 84.769531 65.46875 L 84.308594 68.792969 L 73.035156 68.792969 Z M 73.496094 65.46875 "/>
<path fill-rule="nonzero" fill="rgb(100%, 40.783691%, 11.372375%)" fill-opacity="1" d="M 87.082031 65.46875 L 93.546875 65.46875 L 93.0625 68.792969 L 86.59375 68.792969 Z M 84.933594 80.621094 L 86.410156 80.621094 L 87.933594 69.902344 L 91.445312 69.902344 L 89.921875 80.621094 L 91.398438 80.621094 L 90.9375 83.945312 L 84.472656 83.945312 Z M 84.933594 80.621094 "/>
<path fill-rule="nonzero" fill="rgb(100%, 40.783691%, 11.372375%)" fill-opacity="1" d="M 103.132812 68.792969 L 95.925781 68.792969 L 95.996094 68.425781 C 96.230469 66.785156 97.730469 65.46875 99.371094 65.46875 L 104.726562 65.46875 C 106.34375 65.46875 107.5 66.785156 107.269531 68.425781 L 106.691406 72.492188 L 103.179688 72.492188 L 103.621094 69.347656 C 103.664062 69.050781 103.457031 68.792969 103.132812 68.792969 M 94.21875 80.992188 L 95.789062 69.902344 L 99.300781 69.902344 L 97.867188 80.066406 C 97.820312 80.367188 98.03125 80.621094 98.351562 80.621094 L 101.496094 80.621094 C 101.792969 80.621094 102.070312 80.367188 102.117188 80.066406 L 102.625 76.371094 L 106.136719 76.371094 L 105.492188 80.992188 C 105.257812 82.628906 103.757812 83.945312 102.117188 83.945312 L 96.757812 83.945312 C 95.140625 83.945312 93.988281 82.628906 94.21875 80.992188 "/>
<path fill-rule="nonzero" fill="rgb(100%, 40.783691%, 11.372375%)" fill-opacity="1" d="M 113.691406 65.46875 L 120.898438 65.46875 L 120.4375 68.792969 L 110.273438 68.792969 L 110.320312 68.425781 C 110.550781 66.785156 112.050781 65.46875 113.691406 65.46875 M 108.539062 80.988281 L 108.957031 78.035156 L 112.46875 78.035156 L 112.191406 80.066406 C 112.144531 80.367188 112.351562 80.621094 112.675781 80.621094 L 115.816406 80.621094 C 116.117188 80.621094 116.394531 80.367188 116.441406 80.066406 L 116.972656 76.371094 C 116.996094 76.070312 116.785156 75.816406 116.484375 75.816406 L 112.234375 75.816406 C 110.597656 75.816406 109.464844 74.5 109.695312 72.859375 L 110.109375 69.902344 L 113.621094 69.902344 L 113.324219 71.9375 C 113.296875 72.234375 113.507812 72.492188 113.808594 72.492188 L 118.058594 72.492188 C 119.695312 72.492188 120.828125 73.804688 120.597656 75.449219 L 119.8125 80.988281 C 119.582031 82.628906 118.082031 83.945312 116.441406 83.945312 L 111.082031 83.945312 C 109.464844 83.945312 108.308594 82.628906 108.539062 80.988281 "/>
<path fill-rule="nonzero" fill="rgb(100%, 72.157288%, 11.372375%)" fill-opacity="1" d="M 74.300781 34.386719 C 74.929688 34.140625 75.617188 33.660156 76.054688 33.171875 C 75.429688 33.175781 74.859375 32.53125 75.542969 31.035156 C 76.273438 29.433594 75.785156 29.171875 75.785156 29.171875 L 75.699219 29.148438 C 75.683594 29.15625 75.671875 29.167969 75.652344 29.171875 C 75.039062 29.324219 73.957031 30.011719 72.988281 32.75 C 72.988281 32.75 73.742188 33.605469 74.300781 34.386719 "/>
<path fill-rule="nonzero" fill="rgb(100%, 72.157288%, 11.372375%)" fill-opacity="1" d="M 55.101562 43.621094 C 55.0625 43.703125 54.984375 43.765625 54.890625 43.777344 L 53.910156 43.898438 C 53.722656 43.925781 53.574219 43.746094 53.632812 43.570312 C 53.703125 43.347656 53.785156 43.058594 53.839844 42.785156 C 53.871094 42.621094 53.75 42.472656 53.585938 42.476562 C 53.1875 42.480469 52.449219 42.5 51.730469 42.585938 C 51.621094 42.597656 51.535156 42.675781 51.511719 42.785156 C 51.414062 43.210938 51.207031 44.332031 51.394531 45.269531 C 51.632812 46.453125 52.996094 46.328125 54.390625 46.058594 C 55.480469 45.847656 56.207031 45.972656 56.664062 46.160156 C 56.90625 46.257812 56.871094 46.617188 56.609375 46.652344 C 55.613281 46.785156 54.59375 47.28125 53.875 47.707031 C 54.195312 48.160156 54.539062 48.546875 54.859375 48.859375 C 55.539062 49.46875 56.183594 49.710938 56.65625 49.800781 C 56.796875 48.132812 57.535156 46.933594 57.570312 46.875 L 57.78125 46.539062 L 58.167969 46.460938 C 59.023438 46.285156 59.589844 45.882812 59.96875 45.417969 C 60.230469 45.015625 60.945312 43.734375 60.570312 42.289062 C 60.511719 42.925781 60.015625 43.316406 59.496094 43.546875 C 58.921875 43.800781 58.34375 43.453125 58.023438 42.914062 C 57.347656 41.785156 55.476562 41.765625 55.476562 41.765625 C 55.515625 42.046875 55.519531 42.675781 55.101562 43.621094 "/>
<path fill-rule="nonzero" fill="rgb(100%, 72.157288%, 11.372375%)" fill-opacity="1" d="M 47.296875 41.726562 C 46.722656 41.464844 46.074219 41.480469 45.558594 41.5625 C 45.476562 41.632812 45.398438 41.699219 45.335938 41.753906 C 45.203125 44.203125 46.460938 45.601562 46.472656 45.617188 L 46.652344 45.804688 L 46.707031 46.058594 C 47.355469 49.058594 48.875 49.953125 49.882812 50.207031 C 49.839844 49.394531 49.894531 48.675781 49.949219 48.21875 C 49.03125 47.964844 48.410156 47.402344 48.03125 46.9375 C 47.886719 46.757812 48.027344 46.484375 48.257812 46.519531 C 48.957031 46.628906 49.832031 46.375 49.71875 45.664062 C 49.609375 44.984375 49.796875 43.460938 49.878906 42.859375 C 49.894531 42.761719 49.851562 42.675781 49.777344 42.621094 L 49.542969 42.558594 C 49.277344 42.527344 48.894531 42.492188 48.472656 42.488281 C 48.347656 42.488281 48.242188 42.578125 48.222656 42.703125 C 48.183594 42.925781 48.148438 43.285156 48.226562 43.605469 C 48.269531 43.773438 48.121094 43.929688 47.945312 43.917969 L 47.265625 43.863281 C 47.152344 43.851562 47.058594 43.773438 47.035156 43.660156 C 46.96875 43.363281 46.890625 42.722656 47.136719 41.898438 C 47.160156 41.820312 47.21875 41.753906 47.296875 41.726562 "/>
<path fill-rule="nonzero" fill="rgb(100%, 72.157288%, 11.372375%)" fill-opacity="1" d="M 65.808594 40.539062 C 66.796875 40.75 68.121094 41.480469 68.820312 43.761719 C 70.082031 47.882812 66.855469 49.058594 64.722656 49.835938 C 64.300781 49.992188 63.898438 50.136719 63.542969 50.292969 C 62.4375 50.78125 62.242188 51.398438 61.953125 52.332031 C 61.769531 52.917969 61.5625 53.585938 61.089844 54.226562 C 60.933594 54.445312 60.738281 54.613281 60.523438 54.742188 C 60.585938 55.21875 60.527344 55.839844 60.007812 56.386719 C 59.386719 57.039062 58.71875 57.023438 58.300781 56.917969 C 58.175781 56.890625 58.148438 56.707031 58.269531 56.65625 C 58.910156 56.371094 58.835938 55.710938 58.835938 55.710938 C 57.792969 55.085938 57.328125 54.351562 57.113281 53.804688 C 56.746094 54.636719 56.738281 55.316406 56.738281 55.324219 L 56.734375 56.417969 L 54.367188 56.023438 L 54.21875 55.9375 C 53.765625 55.671875 53.367188 55.214844 53.03125 54.703125 C 52.976562 55.816406 53.222656 56.71875 53.550781 57.414062 C 54.328125 57.746094 57.257812 58.847656 59.878906 58 C 62.820312 57.054688 61.191406 53.351562 64.589844 51.546875 C 65.15625 51.109375 66.050781 50.738281 67.515625 50.207031 C 68.855469 49.71875 69.625 48.988281 70.070312 48.320312 C 70.527344 47.59375 71.109375 46.15625 70.421875 44.136719 C 70.417969 44.121094 70.417969 44.109375 70.417969 44.09375 C 70.238281 43.464844 69.265625 40.363281 67.253906 39.441406 C 65.992188 38.863281 64.566406 38.816406 63.1875 39.257812 C 62.957031 39.402344 62.722656 39.5 62.488281 39.53125 C 61.667969 39.898438 60.875 40.441406 60.152344 41.15625 C 60.425781 41.207031 61.078125 41.394531 61.585938 41.925781 C 62.667969 40.976562 64.222656 40.203125 65.808594 40.539062 "/>
<path fill-rule="nonzero" fill="rgb(100%, 72.157288%, 11.372375%)" fill-opacity="1" d="M 70.078125 39.34375 C 70.089844 39.363281 71.570312 41.183594 72.160156 42.40625 L 72.5 43.105469 L 73.101562 42.617188 C 73.265625 42.488281 74.707031 41.316406 75.199219 40.601562 L 75.40625 40.296875 L 75.238281 39.96875 C 75.21875 39.933594 74.8125 39.152344 74.28125 38.445312 C 74.214844 38.359375 74.089844 38.34375 74.003906 38.414062 L 73.34375 38.9375 C 73.261719 39 73.246094 39.121094 73.3125 39.207031 C 73.53125 39.5 73.726562 39.8125 73.875 40.0625 C 73.921875 40.136719 73.910156 40.230469 73.851562 40.292969 C 73.628906 40.519531 73.347656 40.785156 73.070312 41.03125 C 72.976562 41.113281 72.839844 41.089844 72.773438 40.988281 C 72.378906 40.347656 71.910156 39.703125 71.558594 39.238281 C 71.492188 39.148438 71.511719 39.027344 71.601562 38.964844 L 73.976562 37.265625 C 73.746094 36.902344 73.519531 36.550781 73.308594 36.230469 L 69.664062 38.835938 Z M 70.078125 39.34375 "/>
<path fill-rule="nonzero" fill="rgb(100%, 72.157288%, 11.372375%)" fill-opacity="1" d="M 62.546875 38.496094 C 63.308594 38.410156 64.222656 36.6875 64.222656 36.6875 C 64.222656 36.6875 63.460938 36.527344 63.042969 36.6875 C 62.945312 36.722656 62.789062 36.839844 62.605469 36.996094 C 62.878906 37.019531 63.097656 37.242188 63.097656 37.523438 C 63.097656 37.816406 62.859375 38.054688 62.566406 38.054688 C 62.269531 38.054688 62.03125 37.816406 62.03125 37.523438 C 62.03125 37.519531 62.03125 37.519531 62.03125 37.519531 C 61.539062 37.996094 61.0625 38.496094 61.0625 38.496094 C 61.0625 38.496094 62.371094 38.515625 62.546875 38.496094 "/>
<path fill-rule="nonzero" fill="rgb(100%, 40.783691%, 11.372375%)" fill-opacity="1" d="M 68.261719 38.296875 C 67.238281 38.753906 66.089844 38.113281 66.089844 38.113281 C 66.089844 38.113281 66.601562 38.035156 67.03125 37.972656 C 67.460938 37.90625 67.828125 37.425781 67.511719 37.09375 C 67.191406 36.757812 67.109375 36.660156 67.109375 36.660156 C 67.109375 36.660156 67.878906 36.902344 68.40625 37.09375 C 68.933594 37.285156 69.28125 37.835938 68.261719 38.296875 M 64.953125 34.113281 C 64.953125 34.113281 64.488281 33.382812 64.277344 33.097656 C 63.855469 32.53125 62.839844 32.78125 62.839844 32.78125 C 63.921875 32.09375 65.039062 32.007812 65.140625 32.625 C 65.242188 33.242188 64.953125 34.113281 64.953125 34.113281 M 62.71875 34.160156 C 62.253906 34.328125 60.984375 34.777344 59.898438 35.039062 C 59.800781 35.0625 59.71875 34.960938 59.765625 34.871094 C 59.976562 34.453125 60.738281 33.554688 61.0625 33.433594 C 61.445312 33.289062 62.460938 33.449219 62.75 33.953125 C 62.800781 34.035156 62.808594 34.128906 62.71875 34.160156 M 59.136719 32.066406 C 58.945312 31.933594 57.890625 32.09375 57.890625 32.09375 C 58.203125 31.558594 59.082031 31.285156 59.304688 31.53125 C 59.527344 31.777344 59.328125 32.199219 59.136719 32.066406 M 55.429688 37.757812 C 55.429688 37.757812 56.59375 36.683594 57.035156 35.65625 C 57.035156 35.65625 58.433594 35.074219 59.136719 35.75 C 59.136719 35.75 57.789062 37.464844 55.429688 37.757812 M 56.492188 32.707031 C 57.433594 32.230469 58.046875 33.007812 57.613281 33.203125 C 57.304688 33.34375 56.246094 34.101562 55.828125 34.554688 C 55.71875 34.675781 55.515625 34.59375 55.523438 34.433594 C 55.570312 33.632812 56.492188 32.707031 56.492188 32.707031 M 52.378906 36.089844 C 52.378906 36.089844 52.960938 35.183594 53.726562 35.351562 C 53.726562 35.351562 53.636719 37.328125 54.019531 37.835938 C 54.019531 37.835938 52.699219 37.789062 52.378906 36.089844 M 77.15625 28.578125 C 77.1875 28.089844 76.976562 27.605469 76.574219 27.28125 C 76.167969 26.953125 75.648438 26.847656 75.148438 26.988281 C 74.085938 27.289062 73.046875 27.75 72.132812 28.230469 C 71.078125 28.871094 67.972656 30.890625 67.550781 32.796875 C 67.550781 32.796875 66.964844 31.023438 67.335938 29.917969 C 66.761719 29.722656 66.121094 29.585938 65.742188 29.6875 C 64.652344 29.972656 62.746094 30.804688 62.726562 30.8125 L 62.417969 30.949219 L 62.097656 30.851562 C 62.078125 30.847656 60.425781 30.363281 59.394531 30.175781 L 58.898438 30.085938 C 58.628906 30.109375 58.25 30.199219 57.890625 30.46875 C 57.824219 30.519531 57.757812 30.570312 57.683594 30.625 L 55.382812 32.382812 C 55.382812 32.382812 55.347656 31.160156 56.242188 30.328125 C 56.269531 30.007812 56.304688 29.695312 56.355469 29.464844 C 56.457031 28.988281 56.457031 28.023438 56.839844 27.304688 C 56.359375 27.75 55.800781 28.40625 55.402344 29.109375 C 54.824219 30.136719 54.339844 32.082031 54.203125 32.742188 L 54.132812 33.082031 L 49.164062 36.859375 L 51.152344 38.527344 L 49.941406 39.167969 C 49.882812 39.199219 48.480469 39.945312 47.109375 40.566406 C 46.457031 40.863281 45.914062 41.265625 45.558594 41.5625 C 46.074219 41.480469 46.722656 41.464844 47.296875 41.726562 C 47.699219 41.582031 49.074219 41.179688 50.789062 41.667969 C 50.824219 41.679688 50.859375 41.679688 50.894531 41.675781 C 51.273438 41.605469 53.679688 41.195312 55.28125 41.554688 C 55.382812 41.578125 55.460938 41.660156 55.476562 41.765625 C 55.476562 41.765625 57.347656 41.785156 58.023438 42.914062 C 58.34375 43.453125 58.921875 43.804688 59.496094 43.546875 C 60.015625 43.3125 60.511719 42.925781 60.570312 42.289062 C 60.480469 41.945312 60.335938 41.597656 60.101562 41.242188 C 60.074219 41.203125 60.105469 41.144531 60.152344 41.15625 C 60.875 40.441406 61.667969 39.902344 62.492188 39.53125 C 62.457031 39.535156 62.425781 39.546875 62.394531 39.546875 C 61.085938 39.632812 59.585938 39.546875 59.585938 39.546875 C 59.585938 39.546875 58.863281 40.03125 58.121094 40.050781 L 58.125 40.054688 C 58.125 40.054688 58.117188 40.054688 58.097656 40.054688 C 58.066406 40.054688 58.03125 40.054688 57.996094 40.054688 C 57.832031 40.070312 57.539062 40.164062 57.371094 40.617188 C 57.0625 41.445312 56.320312 41.28125 56.320312 41.28125 C 56.320312 41.28125 56.570312 40.753906 56.582031 40.164062 C 56.597656 39.574219 56.777344 39.117188 56.777344 39.117188 C 56.777344 39.117188 57.441406 39.398438 58.34375 39.226562 C 59.242188 39.054688 62.265625 35.578125 63.039062 35.300781 C 63.8125 35.023438 65.441406 35.902344 66.492188 36.78125 L 65.140625 37.144531 C 65.140625 37.144531 64.222656 38.621094 63.1875 39.257812 C 64.570312 38.816406 65.992188 38.863281 67.257812 39.441406 C 69.265625 40.363281 70.238281 43.464844 70.414062 44.09375 C 70.371094 43.851562 70.628906 43.648438 70.847656 43.792969 C 71.265625 44.070312 71.773438 44.515625 72.085938 45.183594 C 74.40625 43.226562 75.84375 41.613281 75.953125 41.070312 C 75.808594 40.371094 74.882812 38.714844 73.976562 37.269531 L 71.601562 38.964844 C 71.511719 39.027344 71.492188 39.148438 71.558594 39.238281 C 71.910156 39.703125 72.378906 40.347656 72.773438 40.988281 C 72.839844 41.089844 72.976562 41.113281 73.070312 41.03125 C 73.347656 40.785156 73.628906 40.519531 73.851562 40.292969 C 73.910156 40.230469 73.921875 40.136719 73.875 40.0625 C 73.726562 39.8125 73.53125 39.5 73.3125 39.207031 C 73.246094 39.121094 73.261719 39 73.34375 38.9375 L 74.003906 38.414062 C 74.089844 38.34375 74.214844 38.359375 74.28125 38.449219 C 74.8125 39.152344 75.21875 39.933594 75.238281 39.96875 L 75.40625 40.296875 L 75.199219 40.601562 C 74.707031 41.316406 73.265625 42.488281 73.101562 42.617188 L 72.5 43.105469 L 72.160156 42.40625 C 71.570312 41.183594 70.089844 39.363281 70.078125 39.34375 L 69.664062 38.835938 L 73.308594 36.230469 C 73.253906 36.144531 73.195312 36.0625 73.144531 35.980469 L 72.757812 35.414062 C 72.191406 34.699219 71.238281 33.585938 70.507812 33.160156 C 70.507812 33.160156 72.453125 29.421875 74.46875 28.703125 C 74.953125 28.53125 75.300781 28.46875 75.550781 28.472656 C 75.945312 28.472656 76.039062 29.007812 75.699219 29.148438 L 75.785156 29.171875 C 75.785156 29.171875 76.273438 29.433594 75.542969 31.035156 C 74.859375 32.53125 75.429688 33.175781 76.058594 33.171875 C 76.171875 33.042969 76.269531 32.917969 76.34375 32.792969 C 76.460938 32.589844 76.480469 32.453125 76.46875 32.414062 C 76.238281 31.792969 76.484375 30.871094 76.921875 29.425781 C 77.015625 29.117188 77.140625 28.695312 77.15625 28.578125 "/>
<path fill-rule="nonzero" fill="rgb(100%, 40.783691%, 11.372375%)" fill-opacity="1" d="M 49.542969 42.558594 L 49.78125 42.625 C 49.746094 42.597656 49.707031 42.578125 49.664062 42.574219 C 49.628906 42.570312 49.582031 42.5625 49.542969 42.558594 "/>
<path fill-rule="nonzero" fill="rgb(100%, 40.783691%, 11.372375%)" fill-opacity="1" d="M 53.550781 57.417969 C 54.113281 58.601562 54.921875 59.191406 54.941406 59.199219 C 57 60.035156 58.777344 60.21875 60.203125 59.730469 C 62.070312 59.089844 62.5 58.6875 63.222656 55.5 C 63.371094 54.847656 63.445312 54.328125 63.507812 53.910156 C 63.675781 52.730469 63.882812 52.089844 64.589844 51.546875 C 61.191406 53.351562 62.820312 57.054688 59.878906 58 C 57.257812 58.847656 54.328125 57.742188 53.550781 57.417969 "/>
<path fill-rule="nonzero" fill="rgb(100%, 40.783691%, 11.372375%)" fill-opacity="1" d="M 59.652344 51.589844 C 59.957031 50.675781 60.695312 49.070312 62.289062 48.359375 C 64.671875 47.292969 65.269531 47.207031 65.398438 46.960938 C 65.398438 46.960938 65.398438 45.53125 63.789062 46.089844 C 62.53125 46.527344 61.894531 47.699219 61.546875 47.671875 C 61.195312 47.648438 60.640625 47.039062 59.613281 48.050781 C 58.5625 49.082031 58.890625 50.6875 59.195312 51.589844 C 59.269531 51.808594 59.582031 51.808594 59.652344 51.589844 "/>
<path fill-rule="nonzero" fill="rgb(13.725281%, 12.156677%, 12.548828%)" fill-opacity="1" d="M 62.546875 38.496094 C 62.371094 38.515625 61.0625 38.496094 61.0625 38.496094 C 61.0625 38.496094 61.539062 37.996094 62.03125 37.519531 C 62.03125 37.519531 62.03125 37.519531 62.03125 37.523438 C 62.03125 37.816406 62.269531 38.054688 62.566406 38.054688 C 62.859375 38.054688 63.097656 37.816406 63.097656 37.523438 C 63.097656 37.242188 62.878906 37.019531 62.605469 36.996094 C 62.789062 36.839844 62.945312 36.722656 63.042969 36.6875 C 63.460938 36.527344 64.222656 36.6875 64.222656 36.6875 C 64.222656 36.6875 63.308594 38.410156 62.546875 38.496094 M 63.039062 35.300781 C 62.265625 35.578125 59.242188 39.054688 58.339844 39.226562 C 57.441406 39.398438 56.777344 39.117188 56.777344 39.117188 C 56.777344 39.117188 56.59375 39.574219 56.582031 40.164062 C 56.570312 40.753906 56.320312 41.28125 56.320312 41.28125 C 56.320312 41.28125 57.0625 41.445312 57.371094 40.617188 C 57.539062 40.164062 57.832031 40.070312 57.996094 40.054688 C 58.03125 40.054688 58.066406 40.054688 58.097656 40.050781 C 58.113281 40.054688 58.125 40.054688 58.125 40.054688 L 58.121094 40.050781 C 58.863281 40.03125 59.585938 39.546875 59.585938 39.546875 C 59.585938 39.546875 61.085938 39.632812 62.394531 39.546875 C 62.425781 39.546875 62.457031 39.535156 62.492188 39.53125 C 62.722656 39.496094 62.957031 39.402344 63.1875 39.257812 C 64.222656 38.621094 65.140625 37.144531 65.140625 37.144531 L 66.492188 36.78125 C 65.441406 35.902344 63.8125 35.023438 63.039062 35.300781 "/>
<path fill-rule="nonzero" fill="rgb(13.725281%, 12.156677%, 12.548828%)" fill-opacity="1" d="M 53.726562 35.351562 C 52.960938 35.183594 52.378906 36.089844 52.378906 36.089844 C 52.699219 37.792969 54.019531 37.835938 54.019531 37.835938 C 53.636719 37.328125 53.726562 35.351562 53.726562 35.351562 "/>
<path fill-rule="nonzero" fill="rgb(13.725281%, 12.156677%, 12.548828%)" fill-opacity="1" d="M 59.136719 35.75 C 58.433594 35.074219 57.039062 35.660156 57.039062 35.660156 C 56.59375 36.683594 55.429688 37.757812 55.429688 37.757812 C 57.789062 37.464844 59.136719 35.75 59.136719 35.75 "/>
<path fill-rule="nonzero" fill="rgb(13.725281%, 12.156677%, 12.548828%)" fill-opacity="1" d="M 55.828125 34.554688 C 56.246094 34.101562 57.300781 33.34375 57.613281 33.203125 C 58.046875 33.007812 57.433594 32.230469 56.492188 32.707031 C 56.492188 32.707031 55.570312 33.632812 55.527344 34.433594 C 55.515625 34.59375 55.71875 34.675781 55.828125 34.554688 "/>
<path fill-rule="nonzero" fill="rgb(13.725281%, 12.156677%, 12.548828%)" fill-opacity="1" d="M 59.898438 35.039062 C 60.984375 34.777344 62.253906 34.328125 62.71875 34.160156 C 62.808594 34.128906 62.800781 34.035156 62.75 33.953125 C 62.460938 33.449219 61.445312 33.289062 61.0625 33.433594 C 60.738281 33.554688 59.976562 34.453125 59.765625 34.871094 C 59.71875 34.960938 59.800781 35.0625 59.898438 35.039062 "/>
<path fill-rule="nonzero" fill="rgb(13.725281%, 12.156677%, 12.548828%)" fill-opacity="1" d="M 59.136719 32.066406 C 59.328125 32.203125 59.527344 31.777344 59.304688 31.53125 C 59.082031 31.289062 58.203125 31.558594 57.890625 32.09375 C 57.890625 32.09375 58.945312 31.933594 59.136719 32.066406 "/>
<path fill-rule="nonzero" fill="rgb(13.725281%, 12.156677%, 12.548828%)" fill-opacity="1" d="M 64.277344 33.097656 C 64.488281 33.382812 64.953125 34.113281 64.953125 34.113281 C 64.953125 34.113281 65.242188 33.242188 65.140625 32.625 C 65.039062 32.007812 63.921875 32.09375 62.839844 32.777344 C 62.839844 32.777344 63.855469 32.53125 64.277344 33.097656 "/>
<path fill-rule="nonzero" fill="rgb(13.725281%, 12.156677%, 12.548828%)" fill-opacity="1" d="M 68.40625 37.09375 C 67.878906 36.902344 67.113281 36.660156 67.113281 36.660156 C 67.113281 36.660156 67.191406 36.757812 67.511719 37.09375 C 67.832031 37.425781 67.460938 37.90625 67.03125 37.972656 C 66.601562 38.035156 66.089844 38.113281 66.089844 38.113281 C 66.089844 38.113281 67.238281 38.753906 68.261719 38.296875 C 69.28125 37.835938 68.929688 37.285156 68.40625 37.09375 "/>
<path fill-rule="nonzero" fill="rgb(13.725281%, 12.156677%, 12.548828%)" fill-opacity="1" d="M 59.613281 48.050781 C 60.640625 47.039062 61.195312 47.648438 61.546875 47.671875 C 61.898438 47.699219 62.53125 46.527344 63.789062 46.089844 C 65.398438 45.53125 65.398438 46.960938 65.398438 46.960938 C 65.269531 47.207031 64.671875 47.292969 62.289062 48.359375 C 60.695312 49.070312 59.957031 50.675781 59.652344 51.589844 C 59.582031 51.808594 59.269531 51.808594 59.195312 51.589844 C 58.886719 50.6875 58.5625 49.082031 59.613281 48.050781 M 76.921875 29.425781 C 76.484375 30.871094 76.238281 31.792969 76.46875 32.414062 C 76.484375 32.453125 76.460938 32.589844 76.34375 32.792969 C 76.273438 32.917969 76.167969 33.042969 76.054688 33.171875 C 75.617188 33.660156 74.929688 34.140625 74.300781 34.386719 C 73.742188 33.605469 72.988281 32.75 72.988281 32.75 C 73.957031 30.011719 75.039062 29.324219 75.652344 29.171875 C 75.667969 29.167969 75.683594 29.15625 75.699219 29.148438 C 76.039062 29.007812 75.945312 28.472656 75.550781 28.46875 C 75.300781 28.46875 74.953125 28.53125 74.472656 28.703125 C 72.453125 29.421875 70.503906 33.160156 70.503906 33.160156 C 71.238281 33.585938 72.191406 34.699219 72.757812 35.414062 L 73.140625 35.980469 C 73.195312 36.0625 73.253906 36.144531 73.308594 36.230469 C 73.523438 36.550781 73.75 36.902344 73.976562 37.269531 C 74.882812 38.714844 75.808594 40.371094 75.953125 41.070312 C 75.839844 41.613281 74.40625 43.226562 72.085938 45.183594 C 71.777344 44.515625 71.265625 44.070312 70.847656 43.792969 C 70.628906 43.652344 70.371094 43.851562 70.417969 44.09375 C 70.417969 44.109375 70.417969 44.121094 70.421875 44.136719 C 71.109375 46.15625 70.523438 47.59375 70.070312 48.320312 C 69.625 48.988281 68.855469 49.71875 67.515625 50.207031 C 66.050781 50.738281 65.15625 51.109375 64.589844 51.546875 C 63.882812 52.089844 63.675781 52.730469 63.503906 53.910156 C 63.445312 54.328125 63.371094 54.847656 63.222656 55.5 C 62.5 58.6875 62.070312 59.089844 60.203125 59.730469 C 58.777344 60.21875 57 60.035156 54.941406 59.199219 C 54.921875 59.191406 54.113281 58.597656 53.554688 57.414062 C 53.222656 56.71875 52.976562 55.816406 53.03125 54.703125 C 53.367188 55.214844 53.765625 55.671875 54.21875 55.9375 L 54.363281 56.023438 L 56.734375 56.417969 L 56.738281 55.324219 C 56.738281 55.316406 56.746094 54.636719 57.113281 53.804688 C 57.328125 54.351562 57.792969 55.085938 58.835938 55.710938 C 58.835938 55.710938 58.90625 56.371094 58.269531 56.65625 C 58.148438 56.707031 58.175781 56.890625 58.300781 56.921875 C 58.71875 57.023438 59.386719 57.035156 60.007812 56.386719 C 60.527344 55.839844 60.585938 55.21875 60.523438 54.742188 C 60.738281 54.613281 60.929688 54.445312 61.089844 54.226562 C 61.5625 53.585938 61.769531 52.917969 61.953125 52.332031 C 62.242188 51.398438 62.4375 50.78125 63.542969 50.292969 C 63.898438 50.136719 64.300781 49.992188 64.722656 49.835938 C 66.855469 49.058594 70.082031 47.882812 68.820312 43.761719 C 68.121094 41.480469 66.796875 40.75 65.808594 40.539062 C 64.222656 40.203125 62.664062 40.976562 61.585938 41.925781 C 61.078125 41.394531 60.425781 41.207031 60.152344 41.15625 C 60.105469 41.144531 60.074219 41.203125 60.101562 41.246094 C 60.335938 41.597656 60.480469 41.945312 60.570312 42.289062 C 60.945312 43.734375 60.230469 45.019531 59.96875 45.417969 C 59.589844 45.878906 59.023438 46.285156 58.167969 46.460938 L 57.78125 46.542969 L 57.570312 46.875 C 57.535156 46.933594 56.796875 48.132812 56.652344 49.800781 C 56.183594 49.710938 55.539062 49.464844 54.859375 48.859375 C 54.539062 48.546875 54.195312 48.160156 53.878906 47.707031 C 54.59375 47.28125 55.613281 46.785156 56.609375 46.652344 C 56.871094 46.617188 56.910156 46.257812 56.664062 46.160156 C 56.207031 45.972656 55.480469 45.847656 54.390625 46.058594 C 52.996094 46.328125 51.632812 46.453125 51.394531 45.269531 C 51.207031 44.332031 51.414062 43.210938 51.511719 42.785156 C 51.535156 42.675781 51.621094 42.597656 51.730469 42.585938 C 52.449219 42.5 53.1875 42.480469 53.585938 42.476562 C 53.75 42.472656 53.875 42.621094 53.839844 42.785156 C 53.785156 43.058594 53.703125 43.347656 53.628906 43.570312 C 53.574219 43.746094 53.722656 43.921875 53.90625 43.898438 L 54.894531 43.777344 C 54.980469 43.765625 55.0625 43.703125 55.097656 43.621094 C 55.519531 42.675781 55.515625 42.046875 55.476562 41.765625 C 55.460938 41.660156 55.382812 41.578125 55.28125 41.554688 C 53.679688 41.195312 51.273438 41.605469 50.894531 41.675781 C 50.859375 41.679688 50.824219 41.675781 50.789062 41.667969 C 49.078125 41.179688 47.699219 41.582031 47.296875 41.726562 C 47.21875 41.753906 47.160156 41.820312 47.136719 41.898438 C 46.890625 42.722656 46.96875 43.363281 47.035156 43.660156 C 47.058594 43.773438 47.152344 43.851562 47.265625 43.859375 L 47.945312 43.914062 C 48.121094 43.929688 48.269531 43.773438 48.226562 43.605469 C 48.148438 43.285156 48.183594 42.925781 48.222656 42.703125 C 48.242188 42.578125 48.347656 42.488281 48.472656 42.488281 C 48.894531 42.492188 49.277344 42.527344 49.542969 42.558594 C 49.582031 42.5625 49.628906 42.566406 49.660156 42.570312 C 49.707031 42.578125 49.746094 42.597656 49.78125 42.621094 C 49.851562 42.675781 49.894531 42.761719 49.878906 42.859375 C 49.796875 43.460938 49.609375 44.984375 49.71875 45.664062 C 49.832031 46.375 48.957031 46.628906 48.257812 46.519531 C 48.027344 46.484375 47.886719 46.757812 48.03125 46.9375 C 48.410156 47.402344 49.03125 47.964844 49.949219 48.21875 C 49.894531 48.675781 49.839844 49.394531 49.882812 50.207031 C 48.875 49.953125 47.355469 49.058594 46.707031 46.058594 L 46.652344 45.804688 L 46.472656 45.617188 C 46.460938 45.601562 45.203125 44.203125 45.335938 41.753906 C 45.398438 41.699219 45.476562 41.632812 45.558594 41.5625 C 45.914062 41.265625 46.457031 40.863281 47.113281 40.566406 C 48.480469 39.945312 49.882812 39.199219 49.941406 39.167969 L 51.152344 38.527344 L 49.167969 36.859375 L 54.132812 33.082031 L 54.203125 32.742188 C 54.339844 32.082031 54.824219 30.136719 55.402344 29.109375 C 55.800781 28.40625 56.359375 27.75 56.839844 27.304688 C 56.457031 28.023438 56.457031 28.984375 56.355469 29.464844 C 56.304688 29.695312 56.269531 30.007812 56.242188 30.328125 C 55.347656 31.160156 55.382812 32.382812 55.382812 32.382812 L 57.6875 30.625 C 57.757812 30.570312 57.824219 30.519531 57.890625 30.472656 C 58.25 30.199219 58.628906 30.109375 58.898438 30.085938 L 59.394531 30.175781 C 60.425781 30.363281 62.078125 30.847656 62.09375 30.851562 L 62.417969 30.949219 L 62.726562 30.8125 C 62.746094 30.804688 64.652344 29.972656 65.742188 29.6875 C 66.121094 29.585938 66.761719 29.722656 67.335938 29.917969 C 66.964844 31.023438 67.550781 32.796875 67.550781 32.796875 C 67.972656 30.890625 71.078125 28.871094 72.132812 28.230469 C 73.046875 27.75 74.085938 27.289062 75.148438 26.988281 C 75.648438 26.847656 76.167969 26.953125 76.574219 27.28125 C 76.976562 27.605469 77.1875 28.089844 77.15625 28.578125 C 77.140625 28.695312 77.011719 29.117188 76.921875 29.425781 M 51.910156 51.429688 L 51.835938 51.046875 C 51.683594 50.210938 51.703125 49.359375 51.75 48.777344 L 52.351562 48.757812 C 52.757812 49.355469 53.179688 49.832031 53.601562 50.214844 C 53.898438 50.503906 54.175781 50.742188 54.402344 50.917969 C 54.3125 51.136719 54.183594 51.414062 54.035156 51.707031 L 52.292969 50.4375 Z M 79 28.71875 C 79.070312 27.617188 78.597656 26.539062 77.734375 25.84375 C 76.867188 25.144531 75.710938 24.90625 74.644531 25.210938 C 71.933594 25.972656 69.417969 27.636719 68.417969 28.347656 C 67.679688 28.046875 66.339844 27.617188 65.273438 27.898438 C 64.316406 28.148438 62.914062 28.722656 62.296875 28.988281 C 61.84375 28.859375 60.996094 28.625 60.242188 28.460938 C 60.121094 28.1875 59.984375 27.953125 59.839844 27.765625 C 59.804688 27.710938 59.773438 27.503906 59.753906 27.367188 C 59.671875 26.855469 59.550781 26.074219 58.824219 25.351562 C 58.460938 24.992188 57.96875 24.832031 57.4375 24.90625 C 55.859375 25.125 54.238281 27.414062 53.792969 28.199219 C 53.125 29.382812 52.648438 31.257812 52.46875 32.023438 L 46.207031 36.785156 L 47.847656 38.164062 C 47.394531 38.390625 46.863281 38.648438 46.347656 38.882812 C 44.835938 39.570312 43.8125 40.652344 43.769531 40.699219 L 43.554688 40.925781 L 43.523438 41.238281 C 43.222656 44.160156 44.46875 46.058594 44.949219 46.675781 C 46.074219 51.425781 49.40625 52.324219 51.039062 52.132812 L 51.679688 52.054688 C 49.960938 57.203125 53.164062 60.472656 54.226562 60.902344 C 55.769531 61.53125 57.199219 61.84375 58.507812 61.84375 C 59.324219 61.84375 60.089844 61.722656 60.800781 61.480469 C 63.570312 60.53125 64.253906 59.320312 65.023438 55.90625 C 65.1875 55.1875 65.269531 54.625 65.335938 54.175781 C 65.449219 53.40625 65.492188 53.210938 65.660156 53.054688 C 65.972656 52.769531 66.808594 52.429688 68.148438 51.945312 C 71.523438 50.71875 72.292969 48.203125 72.464844 47.265625 C 78.101562 42.71875 77.863281 41.28125 77.785156 40.808594 C 77.585938 39.617188 76.21875 37.332031 75.339844 35.957031 C 76.402344 35.453125 77.429688 34.601562 77.941406 33.722656 C 78.410156 32.917969 78.363281 32.265625 78.226562 31.84375 C 78.226562 31.5 78.539062 30.464844 78.691406 29.960938 C 78.886719 29.304688 78.984375 28.976562 79 28.71875 "/>
<path fill-rule="nonzero" fill="rgb(13.725281%, 12.156677%, 12.548828%)" fill-opacity="1" d="M 66.011719 53.484375 L 66.289062 53.484375 L 66.289062 54.242188 L 66.441406 54.242188 L 66.441406 53.484375 L 66.71875 53.484375 L 66.71875 53.351562 L 66.011719 53.351562 Z M 66.011719 53.484375 "/>
<path fill-rule="nonzero" fill="rgb(13.725281%, 12.156677%, 12.548828%)" fill-opacity="1" d="M 67.367188 54.007812 L 67.113281 53.351562 L 66.871094 53.351562 L 66.871094 54.242188 L 67.03125 54.242188 L 67.03125 53.519531 L 67.035156 53.519531 L 67.3125 54.242188 L 67.421875 54.242188 L 67.699219 53.519531 L 67.703125 53.519531 L 67.703125 54.242188 L 67.859375 54.242188 L 67.859375 53.351562 L 67.617188 53.351562 Z M 67.367188 54.007812 "/>
<path fill-rule="nonzero" fill="rgb(100%, 40.783691%, 11.372375%)" fill-opacity="1" d="M 30.03125 7.664062 C 29.488281 7.253906 28.820312 7.1875 28.050781 7.472656 C 25.597656 8.386719 23.175781 9.40625 20.789062 10.527344 C 20.789062 11.695312 20.785156 12.863281 20.785156 14.035156 C 22.898438 13.039062 25.039062 12.128906 27.203125 11.296875 C 27.339844 11.246094 27.46875 11.253906 27.558594 11.320312 C 27.648438 11.386719 27.695312 11.503906 27.695312 11.652344 C 27.691406 15.261719 27.6875 18.875 27.683594 22.484375 C 27.683594 22.847656 27.40625 23.257812 27.078125 23.382812 C 26 23.800781 24.925781 24.238281 23.859375 24.691406 C 23.863281 21.066406 23.867188 17.4375 23.867188 13.808594 C 22.835938 14.25 21.804688 14.714844 20.785156 15.195312 C 20.78125 19.992188 20.777344 24.789062 20.773438 29.585938 C 23.195312 28.441406 25.65625 27.410156 28.144531 26.484375 C 28.894531 26.207031 29.539062 25.6875 30.058594 24.9375 C 30.578125 24.183594 30.839844 23.382812 30.84375 22.546875 C 30.847656 18.226562 30.851562 13.90625 30.855469 9.589844 C 30.855469 8.730469 30.578125 8.078125 30.03125 7.664062 "/>
<path fill-rule="nonzero" fill="rgb(100%, 40.783691%, 11.372375%)" fill-opacity="1" d="M 34.050781 8.964844 C 37.09375 8.058594 40.171875 7.304688 43.277344 6.707031 C 43.277344 5.539062 43.277344 4.371094 43.28125 3.203125 C 40.175781 3.796875 37.097656 4.550781 34.050781 5.460938 C 34.050781 6.628906 34.050781 7.796875 34.050781 8.964844 "/>
<path fill-rule="nonzero" fill="rgb(100%, 40.783691%, 11.372375%)" fill-opacity="1" d="M 37.390625 19.914062 C 37.300781 19.839844 37.25 19.714844 37.25 19.566406 C 37.253906 18.359375 37.253906 17.15625 37.253906 15.949219 C 38.734375 15.5625 40.21875 15.214844 41.710938 14.902344 C 41.710938 13.660156 41.710938 12.421875 41.714844 11.179688 C 40.222656 11.496094 38.738281 11.84375 37.257812 12.230469 C 37.257812 11.230469 37.261719 10.226562 37.261719 9.226562 C 36.1875 9.507812 35.113281 9.808594 34.046875 10.125 C 34.042969 14.921875 34.039062 19.71875 34.035156 24.515625 C 37.078125 23.605469 40.160156 22.851562 43.261719 22.253906 C 43.261719 21.085938 43.265625 19.917969 43.265625 18.746094 C 41.421875 19.105469 39.585938 19.511719 37.757812 19.980469 C 37.613281 20.015625 37.484375 19.992188 37.390625 19.914062 "/>
<path fill-rule="nonzero" fill="rgb(100%, 40.783691%, 11.372375%)" fill-opacity="1" d="M 53.128906 16.710938 C 53.125 17.074219 52.835938 17.40625 52.488281 17.4375 C 51.527344 17.527344 50.566406 17.628906 49.609375 17.746094 C 49.464844 17.765625 49.332031 17.726562 49.234375 17.636719 C 49.144531 17.546875 49.09375 17.417969 49.09375 17.269531 C 49.097656 13.824219 49.101562 10.378906 49.105469 6.933594 C 48.007812 7.074219 46.914062 7.234375 45.824219 7.410156 C 45.820312 12.207031 45.816406 17.003906 45.808594 21.796875 C 49.328125 21.21875 52.871094 20.839844 56.421875 20.660156 C 56.425781 17.980469 56.429688 15.300781 56.433594 12.621094 C 55.332031 12.675781 54.230469 12.753906 53.132812 12.84375 C 53.128906 14.132812 53.128906 15.421875 53.128906 16.710938 "/>
<path fill-rule="nonzero" fill="rgb(100%, 40.783691%, 11.372375%)" fill-opacity="1" d="M 49.109375 2.265625 C 48.011719 2.410156 46.917969 2.566406 45.828125 2.746094 C 45.828125 3.914062 45.828125 5.082031 45.824219 6.253906 C 46.917969 6.074219 48.007812 5.914062 49.105469 5.773438 C 49.105469 4.605469 49.105469 3.4375 49.109375 2.265625 "/>
<path fill-rule="nonzero" fill="rgb(100%, 40.783691%, 11.372375%)" fill-opacity="1" d="M 85.554688 4.652344 C 83.964844 4.230469 82.359375 3.851562 80.753906 3.511719 C 79.980469 3.351562 79.3125 3.511719 78.777344 3.980469 C 78.242188 4.457031 77.972656 5.121094 77.96875 5.957031 C 77.96875 6.128906 77.96875 6.304688 77.96875 6.476562 C 80.222656 6.878906 82.460938 7.363281 84.6875 7.929688 C 84.832031 7.96875 84.960938 8.058594 85.054688 8.183594 C 85.144531 8.304688 85.195312 8.453125 85.195312 8.601562 C 85.191406 12.210938 85.1875 15.820312 85.183594 19.425781 C 85.183594 19.789062 84.898438 20.023438 84.5625 19.9375 C 83.617188 19.699219 82.675781 19.476562 81.726562 19.265625 C 81.582031 19.234375 81.453125 19.148438 81.355469 19.027344 C 81.265625 18.90625 81.21875 18.761719 81.21875 18.613281 C 81.21875 15.167969 81.222656 11.722656 81.226562 8.277344 C 80.144531 8.046875 79.058594 7.832031 77.96875 7.636719 C 77.964844 11.394531 77.960938 15.152344 77.957031 18.90625 C 77.957031 19.769531 78.242188 20.558594 78.804688 21.269531 C 79.367188 21.972656 80.054688 22.414062 80.851562 22.582031 C 82.460938 22.921875 84.0625 23.300781 85.65625 23.726562 C 86.421875 23.929688 87.074219 23.824219 87.601562 23.402344 C 88.128906 22.984375 88.394531 22.347656 88.394531 21.515625 C 88.398438 17.199219 88.402344 12.882812 88.40625 8.566406 C 88.410156 7.707031 88.128906 6.878906 87.574219 6.117188 C 87.023438 5.355469 86.34375 4.859375 85.554688 4.652344 "/>
<path fill-rule="nonzero" fill="rgb(100%, 40.783691%, 11.372375%)" fill-opacity="1" d="M 98.625 24.023438 C 98.625 24.386719 98.351562 24.574219 98.027344 24.4375 C 97.117188 24.058594 96.207031 23.691406 95.292969 23.339844 C 95.152344 23.289062 95.027344 23.183594 94.933594 23.046875 C 94.847656 22.914062 94.800781 22.757812 94.800781 22.613281 C 94.804688 19.167969 94.804688 15.722656 94.808594 12.277344 C 93.761719 11.882812 92.707031 11.507812 91.652344 11.148438 C 91.648438 15.941406 91.640625 20.734375 91.636719 25.527344 C 95.046875 26.679688 98.410156 28.03125 101.707031 29.582031 C 101.707031 26.902344 101.710938 24.222656 101.710938 21.546875 C 100.691406 21.066406 99.664062 20.601562 98.628906 20.160156 C 98.628906 21.449219 98.625 22.734375 98.625 24.023438 "/>
<path fill-rule="nonzero" fill="rgb(100%, 40.783691%, 11.372375%)" fill-opacity="1" d="M 94.8125 7.613281 C 93.765625 7.21875 92.714844 6.84375 91.65625 6.484375 C 91.652344 7.652344 91.652344 8.820312 91.652344 9.988281 C 92.710938 10.347656 93.761719 10.722656 94.808594 11.117188 C 94.8125 9.949219 94.8125 8.78125 94.8125 7.613281 "/>
<path fill-rule="nonzero" fill="rgb(100%, 40.783691%, 11.372375%)" fill-opacity="1" d="M 71.8125 9.226562 C 70.519531 9.082031 69.222656 8.964844 67.925781 8.871094 C 67.78125 8.859375 67.648438 8.796875 67.550781 8.6875 C 67.460938 8.582031 67.410156 8.441406 67.410156 8.292969 C 67.410156 7.648438 67.410156 7 67.410156 6.355469 C 66.308594 6.28125 65.207031 6.230469 64.105469 6.199219 C 64.105469 7.15625 64.105469 8.113281 64.105469 9.074219 C 64.101562 9.933594 64.390625 10.683594 64.960938 11.308594 C 65.53125 11.933594 66.230469 12.269531 67.039062 12.320312 C 68.335938 12.398438 69.632812 12.503906 70.925781 12.636719 C 71.074219 12.652344 71.207031 12.722656 71.300781 12.835938 C 71.394531 12.941406 71.445312 13.082031 71.445312 13.230469 C 71.441406 14.460938 71.441406 15.6875 71.4375 16.914062 C 71.4375 17.273438 71.148438 17.550781 70.804688 17.515625 C 69.84375 17.417969 68.882812 17.335938 67.917969 17.265625 C 67.769531 17.257812 67.636719 17.191406 67.542969 17.082031 C 67.449219 16.976562 67.398438 16.839844 67.398438 16.691406 C 67.402344 16.007812 67.402344 15.324219 67.402344 14.640625 C 66.300781 14.570312 65.199219 14.519531 64.097656 14.484375 C 64.097656 15.480469 64.097656 16.476562 64.097656 17.46875 C 64.09375 18.332031 64.382812 19.078125 64.953125 19.703125 C 65.519531 20.328125 66.21875 20.664062 67.03125 20.714844 C 68.660156 20.8125 70.292969 20.957031 71.921875 21.140625 C 72.703125 21.226562 73.375 21.023438 73.914062 20.523438 C 74.449219 20.023438 74.722656 19.351562 74.726562 18.515625 C 74.726562 16.578125 74.730469 14.644531 74.730469 12.710938 C 74.730469 11.851562 74.445312 11.066406 73.878906 10.386719 C 73.3125 9.707031 72.621094 9.316406 71.8125 9.226562 "/>
<path fill-rule="nonzero" fill="rgb(100%, 40.783691%, 11.372375%)" fill-opacity="1" d="M 73.59375 2.296875 C 71.378906 2.003906 69.15625 1.792969 66.929688 1.660156 C 66.140625 1.613281 65.46875 1.871094 64.925781 2.421875 C 64.386719 2.976562 64.109375 3.679688 64.109375 4.515625 C 64.109375 4.691406 64.109375 4.863281 64.109375 5.039062 C 67.277344 5.132812 70.441406 5.386719 73.589844 5.800781 C 73.589844 4.628906 73.59375 3.464844 73.59375 2.296875 "/>
<path fill-rule="nonzero" fill="rgb(100%, 40.783691%, 11.372375%)" fill-opacity="1" d="M 102.117188 28.820312 L 102.390625 28.820312 L 102.390625 29.582031 L 102.546875 29.582031 L 102.546875 28.820312 L 102.820312 28.820312 L 102.820312 28.691406 L 102.117188 28.691406 Z M 102.117188 28.820312 "/>
<path fill-rule="nonzero" fill="rgb(100%, 40.783691%, 11.372375%)" fill-opacity="1" d="M 103.472656 29.347656 L 103.21875 28.691406 L 102.976562 28.691406 L 102.976562 29.582031 L 103.136719 29.582031 L 103.136719 28.859375 L 103.417969 29.582031 L 103.527344 29.582031 L 103.804688 28.859375 L 103.808594 28.859375 L 103.808594 29.582031 L 103.964844 29.582031 L 103.964844 28.691406 L 103.722656 28.691406 Z M 103.472656 29.347656 "/>
</svg>
